<?xml version="1.0" encoding="utf-8"?>
<svg xmlns="http://www.w3.org/2000/svg" xmlns:xlink="http://www.w3.org/1999/xlink" width="1000" height="700" viewBox="0 0 4000 2800">
<defs>
  <clipPath id="clip530">
    <rect x="0" y="0" width="4000" height="2800"/>
  </clipPath>
</defs>
<path clip-path="url(#clip530)" d="M0 2800 L4000 2800 L4000 0 L0 0  Z" fill="#ffffff" fill-rule="evenodd" fill-opacity="1"/>
<defs>
  <clipPath id="clip531">
    <rect x="800" y="0" width="2801" height="2800"/>
  </clipPath>
</defs>
<path clip-path="url(#clip530)" d="M163.478 1272.72 L3952.76 1272.72 L3952.76 126.496 L163.478 126.496  Z" fill="#ffffff" fill-rule="evenodd" fill-opacity="1"/>
<defs>
  <clipPath id="clip532">
    <rect x="163" y="126" width="3790" height="1147"/>
  </clipPath>
</defs>
<polyline clip-path="url(#clip532)" style="stroke:#000000; stroke-linecap:round; stroke-linejoin:round; stroke-width:2; stroke-opacity:0.3; fill:none" points="234.613,1272.72 234.613,126.496 "/>
<polyline clip-path="url(#clip532)" style="stroke:#000000; stroke-linecap:round; stroke-linejoin:round; stroke-width:2; stroke-opacity:0.3; fill:none" points="1137.34,1272.72 1137.34,126.496 "/>
<polyline clip-path="url(#clip532)" style="stroke:#000000; stroke-linecap:round; stroke-linejoin:round; stroke-width:2; stroke-opacity:0.3; fill:none" points="2040.06,1272.72 2040.06,126.496 "/>
<polyline clip-path="url(#clip532)" style="stroke:#000000; stroke-linecap:round; stroke-linejoin:round; stroke-width:2; stroke-opacity:0.3; fill:none" points="2942.79,1272.72 2942.79,126.496 "/>
<polyline clip-path="url(#clip532)" style="stroke:#000000; stroke-linecap:round; stroke-linejoin:round; stroke-width:2; stroke-opacity:0.3; fill:none" points="3845.51,1272.72 3845.51,126.496 "/>
<polyline clip-path="url(#clip532)" style="stroke:#000000; stroke-linecap:round; stroke-linejoin:round; stroke-width:2; stroke-opacity:0.3; fill:none" points="163.478,1230.42 3952.76,1230.42 "/>
<polyline clip-path="url(#clip532)" style="stroke:#000000; stroke-linecap:round; stroke-linejoin:round; stroke-width:2; stroke-opacity:0.3; fill:none" points="163.478,993.032 3952.76,993.032 "/>
<polyline clip-path="url(#clip532)" style="stroke:#000000; stroke-linecap:round; stroke-linejoin:round; stroke-width:2; stroke-opacity:0.3; fill:none" points="163.478,755.644 3952.76,755.644 "/>
<polyline clip-path="url(#clip532)" style="stroke:#000000; stroke-linecap:round; stroke-linejoin:round; stroke-width:2; stroke-opacity:0.3; fill:none" points="163.478,518.256 3952.76,518.256 "/>
<polyline clip-path="url(#clip532)" style="stroke:#000000; stroke-linecap:round; stroke-linejoin:round; stroke-width:2; stroke-opacity:0.3; fill:none" points="163.478,280.869 3952.76,280.869 "/>
<polyline clip-path="url(#clip530)" style="stroke:#000000; stroke-linecap:round; stroke-linejoin:round; stroke-width:4; stroke-opacity:1; fill:none" points="163.478,1272.72 3952.76,1272.72 "/>
<polyline clip-path="url(#clip530)" style="stroke:#000000; stroke-linecap:round; stroke-linejoin:round; stroke-width:4; stroke-opacity:1; fill:none" points="234.613,1272.72 234.613,1253.82 "/>
<polyline clip-path="url(#clip530)" style="stroke:#000000; stroke-linecap:round; stroke-linejoin:round; stroke-width:4; stroke-opacity:1; fill:none" points="1137.34,1272.72 1137.34,1253.82 "/>
<polyline clip-path="url(#clip530)" style="stroke:#000000; stroke-linecap:round; stroke-linejoin:round; stroke-width:4; stroke-opacity:1; fill:none" points="2040.06,1272.72 2040.06,1253.82 "/>
<polyline clip-path="url(#clip530)" style="stroke:#000000; stroke-linecap:round; stroke-linejoin:round; stroke-width:4; stroke-opacity:1; fill:none" points="2942.79,1272.72 2942.79,1253.82 "/>
<polyline clip-path="url(#clip530)" style="stroke:#000000; stroke-linecap:round; stroke-linejoin:round; stroke-width:4; stroke-opacity:1; fill:none" points="3845.51,1272.72 3845.51,1253.82 "/>
<path clip-path="url(#clip530)" d="M234.613 1316.44 Q231.002 1316.44 229.173 1320 Q227.367 1323.55 227.367 1330.67 Q227.367 1337.78 229.173 1341.35 Q231.002 1344.89 234.613 1344.89 Q238.247 1344.89 240.052 1341.35 Q241.881 1337.78 241.881 1330.67 Q241.881 1323.55 240.052 1320 Q238.247 1316.44 234.613 1316.44 M234.613 1312.73 Q240.423 1312.73 243.478 1317.34 Q246.557 1321.92 246.557 1330.67 Q246.557 1339.4 243.478 1344.01 Q240.423 1348.59 234.613 1348.59 Q228.802 1348.59 225.724 1344.01 Q222.668 1339.4 222.668 1330.67 Q222.668 1321.92 225.724 1317.34 Q228.802 1312.73 234.613 1312.73 Z" fill="#000000" fill-rule="nonzero" fill-opacity="1" /><path clip-path="url(#clip530)" d="M1116.61 1343.98 L1132.93 1343.98 L1132.93 1347.92 L1110.98 1347.92 L1110.98 1343.98 Q1113.65 1341.23 1118.23 1336.6 Q1122.84 1331.95 1124.02 1330.61 Q1126.26 1328.08 1127.14 1326.35 Q1128.04 1324.59 1128.04 1322.9 Q1128.04 1320.14 1126.1 1318.41 Q1124.18 1316.67 1121.08 1316.67 Q1118.88 1316.67 1116.42 1317.43 Q1113.99 1318.2 1111.21 1319.75 L1111.21 1315.03 Q1114.04 1313.89 1116.49 1313.31 Q1118.95 1312.73 1120.98 1312.73 Q1126.35 1312.73 1129.55 1315.42 Q1132.74 1318.11 1132.74 1322.6 Q1132.74 1324.73 1131.93 1326.65 Q1131.15 1328.54 1129.04 1331.14 Q1128.46 1331.81 1125.36 1335.03 Q1122.26 1338.22 1116.61 1343.98 Z" fill="#000000" fill-rule="nonzero" fill-opacity="1" /><path clip-path="url(#clip530)" d="M1142.79 1313.36 L1161.15 1313.36 L1161.15 1317.3 L1147.07 1317.3 L1147.07 1325.77 Q1148.09 1325.42 1149.11 1325.26 Q1150.13 1325.07 1151.15 1325.07 Q1156.93 1325.07 1160.31 1328.24 Q1163.69 1331.42 1163.69 1336.83 Q1163.69 1342.41 1160.22 1345.51 Q1156.75 1348.59 1150.43 1348.59 Q1148.25 1348.59 1145.98 1348.22 Q1143.74 1347.85 1141.33 1347.11 L1141.33 1342.41 Q1143.41 1343.54 1145.64 1344.1 Q1147.86 1344.66 1150.34 1344.66 Q1154.34 1344.66 1156.68 1342.55 Q1159.02 1340.44 1159.02 1336.83 Q1159.02 1333.22 1156.68 1331.11 Q1154.34 1329.01 1150.34 1329.01 Q1148.46 1329.01 1146.59 1329.42 Q1144.73 1329.84 1142.79 1330.72 L1142.79 1313.36 Z" fill="#000000" fill-rule="nonzero" fill-opacity="1" /><path clip-path="url(#clip530)" d="M2014.76 1313.36 L2033.12 1313.36 L2033.12 1317.3 L2019.04 1317.3 L2019.04 1325.77 Q2020.06 1325.42 2021.08 1325.26 Q2022.1 1325.07 2023.12 1325.07 Q2028.91 1325.07 2032.28 1328.24 Q2035.66 1331.42 2035.66 1336.83 Q2035.66 1342.41 2032.19 1345.51 Q2028.72 1348.59 2022.4 1348.59 Q2020.22 1348.59 2017.96 1348.22 Q2015.71 1347.85 2013.3 1347.11 L2013.3 1342.41 Q2015.39 1343.54 2017.61 1344.1 Q2019.83 1344.66 2022.31 1344.66 Q2026.31 1344.66 2028.65 1342.55 Q2030.99 1340.44 2030.99 1336.83 Q2030.99 1333.22 2028.65 1331.11 Q2026.31 1329.01 2022.31 1329.01 Q2020.43 1329.01 2018.56 1329.42 Q2016.71 1329.84 2014.76 1330.72 L2014.76 1313.36 Z" fill="#000000" fill-rule="nonzero" fill-opacity="1" /><path clip-path="url(#clip530)" d="M2054.88 1316.44 Q2051.27 1316.44 2049.44 1320 Q2047.63 1323.55 2047.63 1330.67 Q2047.63 1337.78 2049.44 1341.35 Q2051.27 1344.89 2054.88 1344.89 Q2058.51 1344.89 2060.32 1341.35 Q2062.15 1337.78 2062.15 1330.67 Q2062.15 1323.55 2060.32 1320 Q2058.51 1316.44 2054.88 1316.44 M2054.88 1312.73 Q2060.69 1312.73 2063.74 1317.34 Q2066.82 1321.92 2066.82 1330.67 Q2066.82 1339.4 2063.74 1344.01 Q2060.69 1348.59 2054.88 1348.59 Q2049.07 1348.59 2045.99 1344.01 Q2042.93 1339.4 2042.93 1330.67 Q2042.93 1321.92 2045.99 1317.34 Q2049.07 1312.73 2054.88 1312.73 Z" fill="#000000" fill-rule="nonzero" fill-opacity="1" /><path clip-path="url(#clip530)" d="M2916.64 1313.36 L2938.86 1313.36 L2938.86 1315.35 L2926.32 1347.92 L2921.43 1347.92 L2933.24 1317.3 L2916.64 1317.3 L2916.64 1313.36 Z" fill="#000000" fill-rule="nonzero" fill-opacity="1" /><path clip-path="url(#clip530)" d="M2948.03 1313.36 L2966.39 1313.36 L2966.39 1317.3 L2952.31 1317.3 L2952.31 1325.77 Q2953.33 1325.42 2954.35 1325.26 Q2955.37 1325.07 2956.39 1325.07 Q2962.17 1325.07 2965.55 1328.24 Q2968.93 1331.42 2968.93 1336.83 Q2968.93 1342.41 2965.46 1345.51 Q2961.99 1348.59 2955.67 1348.59 Q2953.49 1348.59 2951.22 1348.22 Q2948.98 1347.85 2946.57 1347.11 L2946.57 1342.41 Q2948.66 1343.54 2950.88 1344.1 Q2953.1 1344.66 2955.58 1344.66 Q2959.58 1344.66 2961.92 1342.55 Q2964.26 1340.44 2964.26 1336.83 Q2964.26 1333.22 2961.92 1331.11 Q2959.58 1329.01 2955.58 1329.01 Q2953.7 1329.01 2951.83 1329.42 Q2949.97 1329.84 2948.03 1330.72 L2948.03 1313.36 Z" fill="#000000" fill-rule="nonzero" fill-opacity="1" /><path clip-path="url(#clip530)" d="M3805.12 1343.98 L3812.76 1343.98 L3812.76 1317.62 L3804.45 1319.29 L3804.45 1315.03 L3812.71 1313.36 L3817.39 1313.36 L3817.39 1343.98 L3825.03 1343.98 L3825.03 1347.92 L3805.12 1347.92 L3805.12 1343.98 Z" fill="#000000" fill-rule="nonzero" fill-opacity="1" /><path clip-path="url(#clip530)" d="M3844.47 1316.44 Q3840.86 1316.44 3839.03 1320 Q3837.23 1323.55 3837.23 1330.67 Q3837.23 1337.78 3839.03 1341.35 Q3840.86 1344.89 3844.47 1344.89 Q3848.1 1344.89 3849.91 1341.35 Q3851.74 1337.78 3851.74 1330.67 Q3851.74 1323.55 3849.91 1320 Q3848.1 1316.44 3844.47 1316.44 M3844.47 1312.73 Q3850.28 1312.73 3853.34 1317.34 Q3856.41 1321.92 3856.41 1330.67 Q3856.41 1339.4 3853.34 1344.01 Q3850.28 1348.59 3844.47 1348.59 Q3838.66 1348.59 3835.58 1344.01 Q3832.53 1339.4 3832.53 1330.67 Q3832.53 1321.92 3835.58 1317.34 Q3838.66 1312.73 3844.47 1312.73 Z" fill="#000000" fill-rule="nonzero" fill-opacity="1" /><path clip-path="url(#clip530)" d="M3874.63 1316.44 Q3871.02 1316.44 3869.19 1320 Q3867.39 1323.55 3867.39 1330.67 Q3867.39 1337.78 3869.19 1341.35 Q3871.02 1344.89 3874.63 1344.89 Q3878.27 1344.89 3880.07 1341.35 Q3881.9 1337.78 3881.9 1330.67 Q3881.9 1323.55 3880.07 1320 Q3878.27 1316.44 3874.63 1316.44 M3874.63 1312.73 Q3880.44 1312.73 3883.5 1317.34 Q3886.58 1321.92 3886.58 1330.67 Q3886.58 1339.4 3883.5 1344.01 Q3880.44 1348.59 3874.63 1348.59 Q3868.82 1348.59 3865.74 1344.01 Q3862.69 1339.4 3862.69 1330.67 Q3862.69 1321.92 3865.74 1317.34 Q3868.82 1312.73 3874.63 1312.73 Z" fill="#000000" fill-rule="nonzero" fill-opacity="1" /><polyline clip-path="url(#clip530)" style="stroke:#000000; stroke-linecap:round; stroke-linejoin:round; stroke-width:4; stroke-opacity:1; fill:none" points="163.478,1272.72 163.478,126.496 "/>
<polyline clip-path="url(#clip530)" style="stroke:#000000; stroke-linecap:round; stroke-linejoin:round; stroke-width:4; stroke-opacity:1; fill:none" points="163.478,1230.42 182.376,1230.42 "/>
<polyline clip-path="url(#clip530)" style="stroke:#000000; stroke-linecap:round; stroke-linejoin:round; stroke-width:4; stroke-opacity:1; fill:none" points="163.478,993.032 182.376,993.032 "/>
<polyline clip-path="url(#clip530)" style="stroke:#000000; stroke-linecap:round; stroke-linejoin:round; stroke-width:4; stroke-opacity:1; fill:none" points="163.478,755.644 182.376,755.644 "/>
<polyline clip-path="url(#clip530)" style="stroke:#000000; stroke-linecap:round; stroke-linejoin:round; stroke-width:4; stroke-opacity:1; fill:none" points="163.478,518.256 182.376,518.256 "/>
<polyline clip-path="url(#clip530)" style="stroke:#000000; stroke-linecap:round; stroke-linejoin:round; stroke-width:4; stroke-opacity:1; fill:none" points="163.478,280.869 182.376,280.869 "/>
<path clip-path="url(#clip530)" d="M43.3625 1230.87 L73.0383 1230.87 L73.0383 1234.81 L43.3625 1234.81 L43.3625 1230.87 Z" fill="#000000" fill-rule="nonzero" fill-opacity="1" /><path clip-path="url(#clip530)" d="M87.1586 1243.76 L103.478 1243.76 L103.478 1247.7 L81.5336 1247.7 L81.5336 1243.76 Q84.1956 1241.01 88.7789 1236.38 Q93.3854 1231.73 94.5659 1230.38 Q96.8113 1227.86 97.6909 1226.13 Q98.5937 1224.37 98.5937 1222.68 Q98.5937 1219.92 96.6492 1218.19 Q94.728 1216.45 91.6261 1216.45 Q89.4271 1216.45 86.9734 1217.21 Q84.5428 1217.98 81.7651 1219.53 L81.7651 1214.81 Q84.5891 1213.67 87.0428 1213.09 Q89.4965 1212.51 91.5335 1212.51 Q96.9039 1212.51 100.098 1215.2 Q103.293 1217.88 103.293 1222.38 Q103.293 1224.5 102.483 1226.43 Q101.696 1228.32 99.589 1230.92 Q99.0103 1231.59 95.9085 1234.81 Q92.8067 1238 87.1586 1243.76 Z" fill="#000000" fill-rule="nonzero" fill-opacity="1" /><path clip-path="url(#clip530)" d="M42.9921 993.483 L72.6679 993.483 L72.6679 997.418 L42.9921 997.418 L42.9921 993.483 Z" fill="#000000" fill-rule="nonzero" fill-opacity="1" /><path clip-path="url(#clip530)" d="M83.5706 1006.38 L91.2095 1006.38 L91.2095 980.011 L82.8993 981.677 L82.8993 977.418 L91.1632 975.752 L95.8391 975.752 L95.8391 1006.38 L103.478 1006.38 L103.478 1010.31 L83.5706 1010.31 L83.5706 1006.38 Z" fill="#000000" fill-rule="nonzero" fill-opacity="1" /><path clip-path="url(#clip530)" d="M91.5335 741.443 Q87.9224 741.443 86.0937 745.007 Q84.2882 748.549 84.2882 755.679 Q84.2882 762.785 86.0937 766.35 Q87.9224 769.892 91.5335 769.892 Q95.1678 769.892 96.9733 766.35 Q98.802 762.785 98.802 755.679 Q98.802 748.549 96.9733 745.007 Q95.1678 741.443 91.5335 741.443 M91.5335 737.739 Q97.3437 737.739 100.399 742.345 Q103.478 746.929 103.478 755.679 Q103.478 764.405 100.399 769.012 Q97.3437 773.595 91.5335 773.595 Q85.7234 773.595 82.6447 769.012 Q79.5892 764.405 79.5892 755.679 Q79.5892 746.929 82.6447 742.345 Q85.7234 737.739 91.5335 737.739 Z" fill="#000000" fill-rule="nonzero" fill-opacity="1" /><path clip-path="url(#clip530)" d="M83.5706 531.601 L91.2095 531.601 L91.2095 505.236 L82.8993 506.902 L82.8993 502.643 L91.1632 500.976 L95.8391 500.976 L95.8391 531.601 L103.478 531.601 L103.478 535.536 L83.5706 535.536 L83.5706 531.601 Z" fill="#000000" fill-rule="nonzero" fill-opacity="1" /><path clip-path="url(#clip530)" d="M87.1586 294.214 L103.478 294.214 L103.478 298.149 L81.5336 298.149 L81.5336 294.214 Q84.1956 291.459 88.7789 286.829 Q93.3854 282.177 94.5659 280.834 Q96.8113 278.311 97.6909 276.575 Q98.5937 274.815 98.5937 273.126 Q98.5937 270.371 96.6492 268.635 Q94.728 266.899 91.6261 266.899 Q89.4271 266.899 86.9734 267.663 Q84.5428 268.427 81.7651 269.978 L81.7651 265.255 Q84.5891 264.121 87.0428 263.542 Q89.4965 262.964 91.5335 262.964 Q96.9039 262.964 100.098 265.649 Q103.293 268.334 103.293 272.825 Q103.293 274.954 102.483 276.876 Q101.696 278.774 99.589 281.366 Q99.0103 282.038 95.9085 285.255 Q92.8067 288.45 87.1586 294.214 Z" fill="#000000" fill-rule="nonzero" fill-opacity="1" /><path clip-path="url(#clip530)" d="M1474.85 12.096 L1483.03 12.096 L1483.03 37.6572 L1510.17 12.096 L1520.7 12.096 L1490.69 40.2903 L1522.85 72.576 L1512.08 72.576 L1483.03 43.45 L1483.03 72.576 L1474.85 72.576 L1474.85 12.096 Z" fill="#000000" fill-rule="nonzero" fill-opacity="1" /><path clip-path="url(#clip530)" d="M1548.09 49.7694 Q1539.05 49.7694 1535.57 51.8354 Q1532.09 53.9013 1532.09 58.8839 Q1532.09 62.8538 1534.68 65.2034 Q1537.31 67.5124 1541.81 67.5124 Q1548.01 67.5124 1551.73 63.1374 Q1555.5 58.7219 1555.5 51.4303 L1555.5 49.7694 L1548.09 49.7694 M1562.95 46.6907 L1562.95 72.576 L1555.5 72.576 L1555.5 65.6895 Q1552.95 69.8214 1549.14 71.8063 Q1545.33 73.7508 1539.82 73.7508 Q1532.86 73.7508 1528.72 69.8619 Q1524.63 65.9325 1524.63 59.3701 Q1524.63 51.7138 1529.74 47.825 Q1534.88 43.9361 1545.05 43.9361 L1555.5 43.9361 L1555.5 43.2069 Q1555.5 38.0623 1552.1 35.2672 Q1548.74 32.4315 1542.62 32.4315 Q1538.73 32.4315 1535.04 33.3632 Q1531.36 34.295 1527.95 36.1584 L1527.95 29.2718 Q1532.05 27.692 1535.89 26.9223 Q1539.74 26.1121 1543.39 26.1121 Q1553.23 26.1121 1558.09 31.2163 Q1562.95 36.3204 1562.95 46.6907 Z" fill="#000000" fill-rule="nonzero" fill-opacity="1" /><path clip-path="url(#clip530)" d="M1578.31 9.54393 L1585.76 9.54393 L1585.76 72.576 L1578.31 72.576 L1578.31 9.54393 Z" fill="#000000" fill-rule="nonzero" fill-opacity="1" /><path clip-path="url(#clip530)" d="M1636.68 35.9153 Q1639.48 30.8922 1643.37 28.5022 Q1647.25 26.1121 1652.52 26.1121 Q1659.61 26.1121 1663.46 31.0947 Q1667.31 36.0368 1667.31 45.1919 L1667.31 72.576 L1659.81 72.576 L1659.81 45.4349 Q1659.81 38.913 1657.5 35.7533 Q1655.19 32.5936 1650.45 32.5936 Q1644.66 32.5936 1641.3 36.4419 Q1637.94 40.2903 1637.94 46.9338 L1637.94 72.576 L1630.44 72.576 L1630.44 45.4349 Q1630.44 38.8725 1628.13 35.7533 Q1625.82 32.5936 1621 32.5936 Q1615.29 32.5936 1611.93 36.4824 Q1608.57 40.3308 1608.57 46.9338 L1608.57 72.576 L1601.07 72.576 L1601.07 27.2059 L1608.57 27.2059 L1608.57 34.2544 Q1611.12 30.082 1614.68 28.0971 Q1618.25 26.1121 1623.15 26.1121 Q1628.09 26.1121 1631.54 28.6237 Q1635.02 31.1352 1636.68 35.9153 Z" fill="#000000" fill-rule="nonzero" fill-opacity="1" /><path clip-path="url(#clip530)" d="M1702.79 49.7694 Q1693.76 49.7694 1690.27 51.8354 Q1686.79 53.9013 1686.79 58.8839 Q1686.79 62.8538 1689.38 65.2034 Q1692.02 67.5124 1696.51 67.5124 Q1702.71 67.5124 1706.44 63.1374 Q1710.21 58.7219 1710.21 51.4303 L1710.21 49.7694 L1702.79 49.7694 M1717.66 46.6907 L1717.66 72.576 L1710.21 72.576 L1710.21 65.6895 Q1707.65 69.8214 1703.85 71.8063 Q1700.04 73.7508 1694.53 73.7508 Q1687.56 73.7508 1683.43 69.8619 Q1679.34 65.9325 1679.34 59.3701 Q1679.34 51.7138 1684.44 47.825 Q1689.59 43.9361 1699.75 43.9361 L1710.21 43.9361 L1710.21 43.2069 Q1710.21 38.0623 1706.8 35.2672 Q1703.44 32.4315 1697.32 32.4315 Q1693.43 32.4315 1689.75 33.3632 Q1686.06 34.295 1682.66 36.1584 L1682.66 29.2718 Q1686.75 27.692 1690.6 26.9223 Q1694.45 26.1121 1698.09 26.1121 Q1707.94 26.1121 1712.8 31.2163 Q1717.66 36.3204 1717.66 46.6907 Z" fill="#000000" fill-rule="nonzero" fill-opacity="1" /><path clip-path="url(#clip530)" d="M1770.73 45.1919 L1770.73 72.576 L1763.27 72.576 L1763.27 45.4349 Q1763.27 38.994 1760.76 35.7938 Q1758.25 32.5936 1753.23 32.5936 Q1747.19 32.5936 1743.71 36.4419 Q1740.22 40.2903 1740.22 46.9338 L1740.22 72.576 L1732.73 72.576 L1732.73 27.2059 L1740.22 27.2059 L1740.22 34.2544 Q1742.9 30.163 1746.5 28.1376 Q1750.15 26.1121 1754.89 26.1121 Q1762.7 26.1121 1766.72 30.9732 Q1770.73 35.7938 1770.73 45.1919 Z" fill="#000000" fill-rule="nonzero" fill-opacity="1" /><path clip-path="url(#clip530)" d="M1848.54 14.0809 L1848.54 22.0612 Q1843.88 19.8332 1839.75 18.7395 Q1835.62 17.6457 1831.77 17.6457 Q1825.09 17.6457 1821.44 20.2383 Q1817.84 22.8309 1817.84 27.611 Q1817.84 31.6214 1820.23 33.6873 Q1822.66 35.7128 1829.38 36.9686 L1834.32 37.9813 Q1843.48 39.7232 1847.81 44.1387 Q1852.19 48.5136 1852.19 55.8863 Q1852.19 64.6767 1846.27 69.2137 Q1840.4 73.7508 1829.02 73.7508 Q1824.72 73.7508 1819.86 72.7785 Q1815.04 71.8063 1809.86 69.9024 L1809.86 61.4765 Q1814.84 64.2716 1819.62 65.6895 Q1824.4 67.1073 1829.02 67.1073 Q1836.03 67.1073 1839.83 64.3527 Q1843.64 61.598 1843.64 56.4939 Q1843.64 52.0379 1840.89 49.5264 Q1838.17 47.0148 1831.93 45.759 L1826.95 44.7868 Q1817.8 42.9639 1813.71 39.075 Q1809.61 35.1862 1809.61 28.2591 Q1809.61 20.2383 1815.24 15.6203 Q1820.92 11.0023 1830.84 11.0023 Q1835.09 11.0023 1839.51 11.7719 Q1843.93 12.5416 1848.54 14.0809 Z" fill="#000000" fill-rule="nonzero" fill-opacity="1" /><path clip-path="url(#clip530)" d="M1899.95 35.9153 Q1902.74 30.8922 1906.63 28.5022 Q1910.52 26.1121 1915.79 26.1121 Q1922.88 26.1121 1926.73 31.0947 Q1930.57 36.0368 1930.57 45.1919 L1930.57 72.576 L1923.08 72.576 L1923.08 45.4349 Q1923.08 38.913 1920.77 35.7533 Q1918.46 32.5936 1913.72 32.5936 Q1907.93 32.5936 1904.57 36.4419 Q1901.21 40.2903 1901.21 46.9338 L1901.21 72.576 L1893.71 72.576 L1893.71 45.4349 Q1893.71 38.8725 1891.4 35.7533 Q1889.09 32.5936 1884.27 32.5936 Q1878.56 32.5936 1875.2 36.4824 Q1871.84 40.3308 1871.84 46.9338 L1871.84 72.576 L1864.34 72.576 L1864.34 27.2059 L1871.84 27.2059 L1871.84 34.2544 Q1874.39 30.082 1877.95 28.0971 Q1881.52 26.1121 1886.42 26.1121 Q1891.36 26.1121 1894.8 28.6237 Q1898.29 31.1352 1899.95 35.9153 Z" fill="#000000" fill-rule="nonzero" fill-opacity="1" /><path clip-path="url(#clip530)" d="M1963.02 32.4315 Q1957.03 32.4315 1953.54 37.1306 Q1950.06 41.7891 1950.06 49.9314 Q1950.06 58.0738 1953.5 62.7728 Q1956.99 67.4314 1963.02 67.4314 Q1968.98 67.4314 1972.46 62.7323 Q1975.94 58.0333 1975.94 49.9314 Q1975.94 41.8701 1972.46 37.1711 Q1968.98 32.4315 1963.02 32.4315 M1963.02 26.1121 Q1972.74 26.1121 1978.29 32.4315 Q1983.84 38.7509 1983.84 49.9314 Q1983.84 61.0714 1978.29 67.4314 Q1972.74 73.7508 1963.02 73.7508 Q1953.26 73.7508 1947.71 67.4314 Q1942.2 61.0714 1942.2 49.9314 Q1942.2 38.7509 1947.71 32.4315 Q1953.26 26.1121 1963.02 26.1121 Z" fill="#000000" fill-rule="nonzero" fill-opacity="1" /><path clip-path="url(#clip530)" d="M2013.78 32.4315 Q2007.78 32.4315 2004.3 37.1306 Q2000.82 41.7891 2000.82 49.9314 Q2000.82 58.0738 2004.26 62.7728 Q2007.74 67.4314 2013.78 67.4314 Q2019.73 67.4314 2023.22 62.7323 Q2026.7 58.0333 2026.7 49.9314 Q2026.7 41.8701 2023.22 37.1711 Q2019.73 32.4315 2013.78 32.4315 M2013.78 26.1121 Q2023.5 26.1121 2029.05 32.4315 Q2034.6 38.7509 2034.6 49.9314 Q2034.6 61.0714 2029.05 67.4314 Q2023.5 73.7508 2013.78 73.7508 Q2004.02 73.7508 1998.47 67.4314 Q1992.96 61.0714 1992.96 49.9314 Q1992.96 38.7509 1998.47 32.4315 Q2004.02 26.1121 2013.78 26.1121 Z" fill="#000000" fill-rule="nonzero" fill-opacity="1" /><path clip-path="url(#clip530)" d="M2054.33 14.324 L2054.33 27.2059 L2069.68 27.2059 L2069.68 32.9987 L2054.33 32.9987 L2054.33 57.6282 Q2054.33 63.1779 2055.83 64.7578 Q2057.37 66.3376 2062.03 66.3376 L2069.68 66.3376 L2069.68 72.576 L2062.03 72.576 Q2053.4 72.576 2050.12 69.3758 Q2046.84 66.1351 2046.84 57.6282 L2046.84 32.9987 L2041.37 32.9987 L2041.37 27.2059 L2046.84 27.2059 L2046.84 14.324 L2054.33 14.324 Z" fill="#000000" fill-rule="nonzero" fill-opacity="1" /><path clip-path="url(#clip530)" d="M2117.2 45.1919 L2117.2 72.576 L2109.75 72.576 L2109.75 45.4349 Q2109.75 38.994 2107.23 35.7938 Q2104.72 32.5936 2099.7 32.5936 Q2093.66 32.5936 2090.18 36.4419 Q2086.7 40.2903 2086.7 46.9338 L2086.7 72.576 L2079.2 72.576 L2079.2 9.54393 L2086.7 9.54393 L2086.7 34.2544 Q2089.37 30.163 2092.97 28.1376 Q2096.62 26.1121 2101.36 26.1121 Q2109.18 26.1121 2113.19 30.9732 Q2117.2 35.7938 2117.2 45.1919 Z" fill="#000000" fill-rule="nonzero" fill-opacity="1" /><path clip-path="url(#clip530)" d="M2170.87 48.0275 L2170.87 51.6733 L2136.6 51.6733 Q2137.09 59.3701 2141.22 63.421 Q2145.39 67.4314 2152.81 67.4314 Q2157.1 67.4314 2161.11 66.3781 Q2165.16 65.3249 2169.13 63.2184 L2169.13 70.267 Q2165.12 71.9684 2160.91 72.8596 Q2156.7 73.7508 2152.36 73.7508 Q2141.5 73.7508 2135.14 67.4314 Q2128.83 61.1119 2128.83 50.3365 Q2128.83 39.1965 2134.82 32.6746 Q2140.86 26.1121 2151.06 26.1121 Q2160.22 26.1121 2165.53 32.0264 Q2170.87 37.9003 2170.87 48.0275 M2163.42 45.84 Q2163.34 39.7232 2159.98 36.0774 Q2156.66 32.4315 2151.15 32.4315 Q2144.91 32.4315 2141.14 35.9558 Q2137.41 39.4801 2136.85 45.8805 L2163.42 45.84 Z" fill="#000000" fill-rule="nonzero" fill-opacity="1" /><path clip-path="url(#clip530)" d="M2209.4 34.1734 Q2208.14 33.4443 2206.64 33.1202 Q2205.18 32.7556 2203.4 32.7556 Q2197.08 32.7556 2193.68 36.8875 Q2190.32 40.9789 2190.32 48.6757 L2190.32 72.576 L2182.82 72.576 L2182.82 27.2059 L2190.32 27.2059 L2190.32 34.2544 Q2192.67 30.1225 2196.44 28.1376 Q2200.2 26.1121 2205.59 26.1121 Q2206.36 26.1121 2207.29 26.2337 Q2208.22 26.3147 2209.36 26.5172 L2209.4 34.1734 Z" fill="#000000" fill-rule="nonzero" fill-opacity="1" /><path clip-path="url(#clip530)" d="M2243.91 12.096 L2282.15 12.096 L2282.15 18.9825 L2252.09 18.9825 L2252.09 36.8875 L2280.9 36.8875 L2280.9 43.7741 L2252.09 43.7741 L2252.09 65.6895 L2282.88 65.6895 L2282.88 72.576 L2243.91 72.576 L2243.91 12.096 Z" fill="#000000" fill-rule="nonzero" fill-opacity="1" /><path clip-path="url(#clip530)" d="M2324.93 28.5427 L2324.93 35.5912 Q2321.77 33.9709 2318.37 33.1607 Q2314.96 32.3505 2311.32 32.3505 Q2305.77 32.3505 2302.97 34.0519 Q2300.22 35.7533 2300.22 39.156 Q2300.22 41.7486 2302.2 43.2475 Q2304.19 44.7058 2310.18 46.0426 L2312.74 46.6097 Q2320.68 48.3111 2324 51.4303 Q2327.36 54.509 2327.36 60.0587 Q2327.36 66.3781 2322.34 70.0644 Q2317.35 73.7508 2308.6 73.7508 Q2304.96 73.7508 2300.99 73.0216 Q2297.06 72.3329 2292.68 70.9151 L2292.68 63.2184 Q2296.82 65.3654 2300.83 66.4591 Q2304.84 67.5124 2308.77 67.5124 Q2314.03 67.5124 2316.87 65.73 Q2319.7 63.9071 2319.7 60.6258 Q2319.7 57.5877 2317.64 55.9673 Q2315.61 54.3469 2308.69 52.8481 L2306.09 52.2405 Q2299.17 50.7821 2296.09 47.7845 Q2293.01 44.7463 2293.01 39.4801 Q2293.01 33.0797 2297.55 29.5959 Q2302.08 26.1121 2310.43 26.1121 Q2314.56 26.1121 2318.21 26.7198 Q2321.85 27.3274 2324.93 28.5427 Z" fill="#000000" fill-rule="nonzero" fill-opacity="1" /><path clip-path="url(#clip530)" d="M2346.6 14.324 L2346.6 27.2059 L2361.95 27.2059 L2361.95 32.9987 L2346.6 32.9987 L2346.6 57.6282 Q2346.6 63.1779 2348.1 64.7578 Q2349.64 66.3376 2354.3 66.3376 L2361.95 66.3376 L2361.95 72.576 L2354.3 72.576 Q2345.67 72.576 2342.39 69.3758 Q2339.11 66.1351 2339.11 57.6282 L2339.11 32.9987 L2333.64 32.9987 L2333.64 27.2059 L2339.11 27.2059 L2339.11 14.324 L2346.6 14.324 Z" fill="#000000" fill-rule="nonzero" fill-opacity="1" /><path clip-path="url(#clip530)" d="M2371.76 27.2059 L2379.21 27.2059 L2379.21 72.576 L2371.76 72.576 L2371.76 27.2059 M2371.76 9.54393 L2379.21 9.54393 L2379.21 18.9825 L2371.76 18.9825 L2371.76 9.54393 Z" fill="#000000" fill-rule="nonzero" fill-opacity="1" /><path clip-path="url(#clip530)" d="M2430.13 35.9153 Q2432.93 30.8922 2436.82 28.5022 Q2440.7 26.1121 2445.97 26.1121 Q2453.06 26.1121 2456.91 31.0947 Q2460.76 36.0368 2460.76 45.1919 L2460.76 72.576 L2453.26 72.576 L2453.26 45.4349 Q2453.26 38.913 2450.95 35.7533 Q2448.64 32.5936 2443.9 32.5936 Q2438.11 32.5936 2434.75 36.4419 Q2431.39 40.2903 2431.39 46.9338 L2431.39 72.576 L2423.89 72.576 L2423.89 45.4349 Q2423.89 38.8725 2421.58 35.7533 Q2419.28 32.5936 2414.45 32.5936 Q2408.74 32.5936 2405.38 36.4824 Q2402.02 40.3308 2402.02 46.9338 L2402.02 72.576 L2394.52 72.576 L2394.52 27.2059 L2402.02 27.2059 L2402.02 34.2544 Q2404.57 30.082 2408.14 28.0971 Q2411.7 26.1121 2416.6 26.1121 Q2421.54 26.1121 2424.99 28.6237 Q2428.47 31.1352 2430.13 35.9153 Z" fill="#000000" fill-rule="nonzero" fill-opacity="1" /><path clip-path="url(#clip530)" d="M2496.24 49.7694 Q2487.21 49.7694 2483.73 51.8354 Q2480.24 53.9013 2480.24 58.8839 Q2480.24 62.8538 2482.83 65.2034 Q2485.47 67.5124 2489.96 67.5124 Q2496.16 67.5124 2499.89 63.1374 Q2503.66 58.7219 2503.66 51.4303 L2503.66 49.7694 L2496.24 49.7694 M2511.11 46.6907 L2511.11 72.576 L2503.66 72.576 L2503.66 65.6895 Q2501.1 69.8214 2497.3 71.8063 Q2493.49 73.7508 2487.98 73.7508 Q2481.01 73.7508 2476.88 69.8619 Q2472.79 65.9325 2472.79 59.3701 Q2472.79 51.7138 2477.89 47.825 Q2483.04 43.9361 2493.2 43.9361 L2503.66 43.9361 L2503.66 43.2069 Q2503.66 38.0623 2500.25 35.2672 Q2496.89 32.4315 2490.77 32.4315 Q2486.88 32.4315 2483.2 33.3632 Q2479.51 34.295 2476.11 36.1584 L2476.11 29.2718 Q2480.2 27.692 2484.05 26.9223 Q2487.9 26.1121 2491.54 26.1121 Q2501.39 26.1121 2506.25 31.2163 Q2511.11 36.3204 2511.11 46.6907 Z" fill="#000000" fill-rule="nonzero" fill-opacity="1" /><path clip-path="url(#clip530)" d="M2533.83 14.324 L2533.83 27.2059 L2549.19 27.2059 L2549.19 32.9987 L2533.83 32.9987 L2533.83 57.6282 Q2533.83 63.1779 2535.33 64.7578 Q2536.87 66.3376 2541.53 66.3376 L2549.19 66.3376 L2549.19 72.576 L2541.53 72.576 Q2532.9 72.576 2529.62 69.3758 Q2526.34 66.1351 2526.34 57.6282 L2526.34 32.9987 L2520.87 32.9987 L2520.87 27.2059 L2526.34 27.2059 L2526.34 14.324 L2533.83 14.324 Z" fill="#000000" fill-rule="nonzero" fill-opacity="1" /><path clip-path="url(#clip530)" d="M2597.8 48.0275 L2597.8 51.6733 L2563.53 51.6733 Q2564.01 59.3701 2568.15 63.421 Q2572.32 67.4314 2579.73 67.4314 Q2584.03 67.4314 2588.04 66.3781 Q2592.09 65.3249 2596.06 63.2184 L2596.06 70.267 Q2592.05 71.9684 2587.83 72.8596 Q2583.62 73.7508 2579.29 73.7508 Q2568.43 73.7508 2562.07 67.4314 Q2555.75 61.1119 2555.75 50.3365 Q2555.75 39.1965 2561.75 32.6746 Q2567.78 26.1121 2577.99 26.1121 Q2587.14 26.1121 2592.45 32.0264 Q2597.8 37.9003 2597.8 48.0275 M2590.34 45.84 Q2590.26 39.7232 2586.9 36.0774 Q2583.58 32.4315 2578.07 32.4315 Q2571.83 32.4315 2568.06 35.9558 Q2564.34 39.4801 2563.77 45.8805 L2590.34 45.84 Z" fill="#000000" fill-rule="nonzero" fill-opacity="1" /><path clip-path="url(#clip530)" d="M2638.96 28.5427 L2638.96 35.5912 Q2635.8 33.9709 2632.39 33.1607 Q2628.99 32.3505 2625.34 32.3505 Q2619.8 32.3505 2617 34.0519 Q2614.25 35.7533 2614.25 39.156 Q2614.25 41.7486 2616.23 43.2475 Q2618.22 44.7058 2624.21 46.0426 L2626.76 46.6097 Q2634.7 48.3111 2638.02 51.4303 Q2641.39 54.509 2641.39 60.0587 Q2641.39 66.3781 2636.36 70.0644 Q2631.38 73.7508 2622.63 73.7508 Q2618.98 73.7508 2615.01 73.0216 Q2611.09 72.3329 2606.71 70.9151 L2606.71 63.2184 Q2610.84 65.3654 2614.85 66.4591 Q2618.86 67.5124 2622.79 67.5124 Q2628.06 67.5124 2630.89 65.73 Q2633.73 63.9071 2633.73 60.6258 Q2633.73 57.5877 2631.66 55.9673 Q2629.64 54.3469 2622.71 52.8481 L2620.12 52.2405 Q2613.19 50.7821 2610.11 47.7845 Q2607.03 44.7463 2607.03 39.4801 Q2607.03 33.0797 2611.57 29.5959 Q2616.11 26.1121 2624.45 26.1121 Q2628.59 26.1121 2632.23 26.7198 Q2635.88 27.3274 2638.96 28.5427 Z" fill="#000000" fill-rule="nonzero" fill-opacity="1" /><polyline clip-path="url(#clip532)" style="stroke:#1e90ff; stroke-linecap:round; stroke-linejoin:round; stroke-width:8; stroke-opacity:1; fill:none" points="270.722,657.778 306.831,602.16 342.94,346.696 379.049,703.113 415.158,967.907 451.267,842.074 487.376,911.992 523.485,767.3 559.594,626.496 595.703,537.57 631.812,597.244 667.921,661.635 704.03,748.804 740.139,953.529 776.248,818.138 812.357,829.806 848.466,540.563 884.575,537.817 920.684,655.908 956.793,381.728 992.902,733.024 1029.01,551.006 1065.12,613.62 1101.23,650.266 1137.34,778.916 1173.45,686.725 1209.56,788.895 1245.66,1051.65 1281.77,804.682 1317.88,712.595 1353.99,611.233 1390.1,857.041 1426.21,747.123 1462.32,698.459 1498.43,497.317 1534.54,390.018 1570.65,491.267 1606.75,697.132 1642.86,864.447 1678.97,703.277 1715.08,631.179 1751.19,759.072 1787.3,829.775 1823.41,835.907 1859.52,897.883 1895.63,462.36 1931.74,722.291 1967.84,594.258 2003.95,483.245 2040.06,709.827 2076.17,831.687 2112.28,724.955 2148.39,540.515 2184.5,735.982 2220.61,903.136 2256.72,862.865 2292.83,870.087 2328.93,620.761 2365.04,577.609 2401.15,566.121 2437.26,838.252 2473.37,537.308 2509.48,524.757 2545.59,414.871 2581.7,731.187 2617.81,814.44 2653.92,740.985 2690.02,520.195 2726.13,726.746 2762.24,876.875 2798.35,807.022 2834.46,912.357 2870.57,718.939 2906.68,505.79 2942.79,681.513 2978.9,661.159 3015.01,584.846 3051.11,440.945 3087.22,631.21 3123.33,433.204 3159.44,626.834 3195.55,421.325 3231.66,760.056 3267.77,694.18 3303.88,674.043 3339.99,740.293 3376.1,770.683 3412.2,588.899 3448.31,608.34 3484.42,639.057 3520.53,677.848 3556.64,483.392 3592.75,606.706 3628.86,896.7 3664.97,725.015 3701.08,773.7 3737.19,615.533 3773.29,766.538 3809.4,959.106 3845.51,825.123 "/>
<path clip-path="url(#clip532)" d="M270.722 1032.14 L306.831 792.351 L342.94 534.456 L379.049 856.208 L415.158 1142.44 L451.267 1058.41 L487.376 1108.59 L523.485 966.039 L559.594 820.742 L595.703 714.972 L631.812 765.725 L667.921 838.25 L704.03 928.814 L740.139 1145.38 L776.248 1024.73 L812.357 1030.81 L848.466 749.897 L884.575 710.432 L920.684 814.924 L956.793 565.829 L992.902 889.68 L1029.01 732.796 L1065.12 781.467 L1101.23 814.055 L1137.34 950.55 L1173.45 876.921 L1209.56 960.91 L1245.66 1240.28 L1281.77 1023.36 L1317.88 902.145 L1353.99 802.22 L1390.1 1027.88 L1426.21 940.19 L1462.32 890.547 L1498.43 690.342 L1534.54 572.048 L1570.65 641.623 L1606.75 856.064 L1642.86 1039.31 L1678.97 909.021 L1715.08 816.664 L1751.19 936.959 L1787.3 1021.04 L1823.41 1034.02 L1859.52 1098.93 L1895.63 684.475 L1931.74 883.197 L1967.84 777.958 L2003.95 666.632 L2040.06 874.923 L2076.17 1012.13 L2112.28 922.185 L2148.39 731.558 L2184.5 900.976 L2220.61 1085.56 L2256.72 1064.75 L2292.83 1069.6 L2328.93 825.911 L2365.04 743.97 L2401.15 731.633 L2437.26 1007.38 L2473.37 730.076 L2509.48 679.247 L2545.59 579.672 L2581.7 880.825 L2617.81 988.483 L2653.92 936.374 L2690.02 720.637 L2726.13 882.409 L2762.24 1050.4 L2798.35 1002.99 L2834.46 1103.12 L2870.57 923.227 L2906.68 704.076 L2942.79 842.8 L2978.9 836.573 L3015.01 768.427 L3051.11 623.851 L3087.22 789.209 L3123.33 609.352 L3159.44 777.957 L3195.55 591.998 L3231.66 911.277 L3267.77 873.526 L3303.88 860.565 L3339.99 933.023 L3376.1 962.375 L3412.2 783.248 L3448.31 786.77 L3484.42 816.448 L3520.53 857.992 L3556.64 672.786 L3592.75 772.593 L3628.86 1071.12 L3664.97 925.275 L3701.08 957.655 L3737.19 808.936 L3773.29 946.849 L3809.4 1154.11 L3845.51 1043.21 L3845.51 607.036 L3809.4 764.103 L3773.29 586.228 L3737.19 422.13 L3701.08 589.745 L3664.97 524.756 L3628.86 722.276 L3592.75 440.818 L3556.64 293.998 L3520.53 497.704 L3484.42 461.666 L3448.31 429.911 L3412.2 394.551 L3376.1 578.991 L3339.99 547.564 L3303.88 487.522 L3267.77 514.834 L3231.66 608.835 L3195.55 250.651 L3159.44 475.71 L3123.33 257.057 L3087.22 473.211 L3051.11 258.04 L3015.01 401.265 L2978.9 485.745 L2942.79 520.226 L2906.68 307.503 L2870.57 514.651 L2834.46 721.59 L2798.35 611.054 L2762.24 703.354 L2726.13 571.082 L2690.02 319.754 L2653.92 545.595 L2617.81 640.398 L2581.7 581.549 L2545.59 250.07 L2509.48 370.268 L2473.37 344.541 L2437.26 669.127 L2401.15 400.61 L2365.04 411.249 L2328.93 415.61 L2292.83 670.568 L2256.72 660.985 L2220.61 720.707 L2184.5 570.988 L2148.39 349.472 L2112.28 527.726 L2076.17 651.247 L2040.06 544.731 L2003.95 299.858 L1967.84 410.558 L1931.74 561.385 L1895.63 240.246 L1859.52 696.837 L1823.41 637.797 L1787.3 638.506 L1751.19 581.184 L1715.08 445.694 L1678.97 497.534 L1642.86 689.584 L1606.75 538.2 L1570.65 340.911 L1534.54 207.988 L1498.43 304.291 L1462.32 506.371 L1426.21 554.056 L1390.1 686.205 L1353.99 420.246 L1317.88 523.045 L1281.77 586 L1245.66 863.016 L1209.56 616.879 L1173.45 496.53 L1137.34 607.283 L1101.23 486.477 L1065.12 445.774 L1029.01 369.217 L992.902 576.369 L956.793 197.626 L920.684 496.893 L884.575 365.202 L848.466 331.23 L812.357 628.799 L776.248 611.551 L740.139 761.682 L704.03 568.793 L667.921 485.02 L631.812 428.763 L595.703 360.168 L559.594 432.25 L523.485 568.561 L487.376 715.399 L451.267 625.735 L415.158 793.371 L379.049 550.018 L342.94 158.936 L306.831 411.969 L270.722 283.41  Z" fill="#1e90ff" fill-rule="evenodd" fill-opacity="0.2"/>
<polyline clip-path="url(#clip532)" style="stroke:#1e90ff; stroke-linecap:round; stroke-linejoin:round; stroke-width:8; stroke-opacity:1; fill:none" points="270.722,657.778 306.831,602.16 342.94,346.696 379.049,703.113 415.158,967.907 451.267,842.074 487.376,911.992 523.485,767.3 559.594,626.496 595.703,537.57 631.812,597.244 667.921,661.635 704.03,748.804 740.139,953.529 776.248,818.138 812.357,829.806 848.466,540.563 884.575,537.817 920.684,655.908 956.793,381.728 992.902,733.024 1029.01,551.006 1065.12,613.62 1101.23,650.266 1137.34,778.916 1173.45,686.725 1209.56,788.895 1245.66,1051.65 1281.77,804.682 1317.88,712.595 1353.99,611.233 1390.1,857.041 1426.21,747.123 1462.32,698.459 1498.43,497.317 1534.54,390.018 1570.65,491.267 1606.75,697.132 1642.86,864.447 1678.97,703.277 1715.08,631.179 1751.19,759.072 1787.3,829.775 1823.41,835.907 1859.52,897.883 1895.63,462.36 1931.74,722.291 1967.84,594.258 2003.95,483.245 2040.06,709.827 2076.17,831.687 2112.28,724.955 2148.39,540.515 2184.5,735.982 2220.61,903.136 2256.72,862.865 2292.83,870.087 2328.93,620.761 2365.04,577.609 2401.15,566.121 2437.26,838.252 2473.37,537.308 2509.48,524.757 2545.59,414.871 2581.7,731.187 2617.81,814.44 2653.92,740.985 2690.02,520.195 2726.13,726.746 2762.24,876.875 2798.35,807.022 2834.46,912.357 2870.57,718.939 2906.68,505.79 2942.79,681.513 2978.9,661.159 3015.01,584.846 3051.11,440.945 3087.22,631.21 3123.33,433.204 3159.44,626.834 3195.55,421.325 3231.66,760.056 3267.77,694.18 3303.88,674.043 3339.99,740.293 3376.1,770.683 3412.2,588.899 3448.31,608.34 3484.42,639.057 3520.53,677.848 3556.64,483.392 3592.75,606.706 3628.86,896.7 3664.97,725.015 3701.08,773.7 3737.19,615.533 3773.29,766.538 3809.4,959.106 3845.51,825.123 "/>
<path clip-path="url(#clip530)" d="M1310.71 1234.51 L2805.53 1234.51 L2805.53 1130.83 L1310.71 1130.83  Z" fill="#ffffff" fill-rule="evenodd" fill-opacity="1"/>
<polyline clip-path="url(#clip530)" style="stroke:#000000; stroke-linecap:round; stroke-linejoin:round; stroke-width:4; stroke-opacity:1; fill:none" points="1310.71,1234.51 2805.53,1234.51 2805.53,1130.83 1310.71,1130.83 1310.71,1234.51 "/>
<polyline clip-path="url(#clip530)" style="stroke:#1e90ff; stroke-linecap:round; stroke-linejoin:round; stroke-width:8; stroke-opacity:1; fill:none" points="1352.81,1182.67 1605.43,1182.67 "/>
<path clip-path="url(#clip530)" d="M1669.78 1166.53 L1669.78 1171.09 Q1667.11 1169.81 1664.75 1169.19 Q1662.39 1168.56 1660.19 1168.56 Q1656.37 1168.56 1654.29 1170.05 Q1652.23 1171.53 1652.23 1174.26 Q1652.23 1176.55 1653.6 1177.73 Q1654.98 1178.89 1658.83 1179.61 L1661.65 1180.18 Q1666.88 1181.18 1669.36 1183.7 Q1671.86 1186.2 1671.86 1190.42 Q1671.86 1195.44 1668.48 1198.03 Q1665.12 1200.62 1658.62 1200.62 Q1656.16 1200.62 1653.39 1200.07 Q1650.63 1199.51 1647.67 1198.42 L1647.67 1193.61 Q1650.52 1195.21 1653.25 1196.02 Q1655.98 1196.83 1658.62 1196.83 Q1662.62 1196.83 1664.8 1195.25 Q1666.97 1193.68 1666.97 1190.76 Q1666.97 1188.22 1665.4 1186.78 Q1663.85 1185.35 1660.28 1184.63 L1657.44 1184.07 Q1652.21 1183.03 1649.87 1180.81 Q1647.53 1178.59 1647.53 1174.63 Q1647.53 1170.05 1650.75 1167.41 Q1653.99 1164.77 1659.66 1164.77 Q1662.09 1164.77 1664.61 1165.21 Q1667.14 1165.65 1669.78 1166.53 Z" fill="#000000" fill-rule="nonzero" fill-opacity="1" /><path clip-path="url(#clip530)" d="M1683.18 1166.67 L1683.18 1174.03 L1691.95 1174.03 L1691.95 1177.34 L1683.18 1177.34 L1683.18 1191.41 Q1683.18 1194.58 1684.03 1195.48 Q1684.91 1196.39 1687.58 1196.39 L1691.95 1196.39 L1691.95 1199.95 L1687.58 1199.95 Q1682.65 1199.95 1680.77 1198.12 Q1678.9 1196.27 1678.9 1191.41 L1678.9 1177.34 L1675.77 1177.34 L1675.77 1174.03 L1678.9 1174.03 L1678.9 1166.67 L1683.18 1166.67 Z" fill="#000000" fill-rule="nonzero" fill-opacity="1" /><path clip-path="url(#clip530)" d="M1709.34 1186.92 Q1704.17 1186.92 1702.18 1188.1 Q1700.19 1189.28 1700.19 1192.13 Q1700.19 1194.4 1701.67 1195.74 Q1703.18 1197.06 1705.75 1197.06 Q1709.29 1197.06 1711.42 1194.56 Q1713.57 1192.04 1713.57 1187.87 L1713.57 1186.92 L1709.34 1186.92 M1717.83 1185.16 L1717.83 1199.95 L1713.57 1199.95 L1713.57 1196.02 Q1712.11 1198.38 1709.94 1199.51 Q1707.76 1200.62 1704.61 1200.62 Q1700.63 1200.62 1698.27 1198.4 Q1695.93 1196.16 1695.93 1192.41 Q1695.93 1188.03 1698.85 1185.81 Q1701.79 1183.59 1707.6 1183.59 L1713.57 1183.59 L1713.57 1183.17 Q1713.57 1180.23 1711.63 1178.63 Q1709.71 1177.01 1706.21 1177.01 Q1703.99 1177.01 1701.88 1177.55 Q1699.78 1178.08 1697.83 1179.14 L1697.83 1175.21 Q1700.17 1174.3 1702.37 1173.86 Q1704.57 1173.4 1706.65 1173.4 Q1712.28 1173.4 1715.05 1176.32 Q1717.83 1179.23 1717.83 1185.16 Z" fill="#000000" fill-rule="nonzero" fill-opacity="1" /><path clip-path="url(#clip530)" d="M1730.82 1166.67 L1730.82 1174.03 L1739.59 1174.03 L1739.59 1177.34 L1730.82 1177.34 L1730.82 1191.41 Q1730.82 1194.58 1731.67 1195.48 Q1732.55 1196.39 1735.22 1196.39 L1739.59 1196.39 L1739.59 1199.95 L1735.22 1199.95 Q1730.28 1199.95 1728.41 1198.12 Q1726.53 1196.27 1726.53 1191.41 L1726.53 1177.34 L1723.41 1177.34 L1723.41 1174.03 L1726.53 1174.03 L1726.53 1166.67 L1730.82 1166.67 Z" fill="#000000" fill-rule="nonzero" fill-opacity="1" /><path clip-path="url(#clip530)" d="M1767.37 1185.92 L1767.37 1188.01 L1747.78 1188.01 Q1748.06 1192.41 1750.42 1194.72 Q1752.81 1197.01 1757.04 1197.01 Q1759.5 1197.01 1761.79 1196.41 Q1764.1 1195.81 1766.37 1194.61 L1766.37 1198.63 Q1764.08 1199.61 1761.67 1200.11 Q1759.27 1200.62 1756.79 1200.62 Q1750.59 1200.62 1746.95 1197.01 Q1743.34 1193.4 1743.34 1187.24 Q1743.34 1180.88 1746.77 1177.15 Q1750.22 1173.4 1756.05 1173.4 Q1761.28 1173.4 1764.31 1176.78 Q1767.37 1180.14 1767.37 1185.92 M1763.11 1184.67 Q1763.06 1181.18 1761.14 1179.1 Q1759.24 1177.01 1756.09 1177.01 Q1752.53 1177.01 1750.38 1179.03 Q1748.25 1181.04 1747.92 1184.7 L1763.11 1184.67 Z" fill="#000000" fill-rule="nonzero" fill-opacity="1" /><path clip-path="url(#clip530)" d="M1790.84 1196.02 L1798.48 1196.02 L1798.48 1169.65 L1790.17 1171.32 L1790.17 1167.06 L1798.43 1165.39 L1803.11 1165.39 L1803.11 1196.02 L1810.75 1196.02 L1810.75 1199.95 L1790.84 1199.95 L1790.84 1196.02 Z" fill="#000000" fill-rule="nonzero" fill-opacity="1" /><path clip-path="url(#clip530)" d="M1834.84 1165.39 L1856.7 1165.39 L1856.7 1169.33 L1839.52 1169.33 L1839.52 1179.56 L1855.98 1179.56 L1855.98 1183.49 L1839.52 1183.49 L1839.52 1196.02 L1857.11 1196.02 L1857.11 1199.95 L1834.84 1199.95 L1834.84 1165.39 Z" fill="#000000" fill-rule="nonzero" fill-opacity="1" /><path clip-path="url(#clip530)" d="M1881.14 1174.79 L1881.14 1178.82 Q1879.33 1177.89 1877.39 1177.43 Q1875.45 1176.97 1873.36 1176.97 Q1870.19 1176.97 1868.59 1177.94 Q1867.02 1178.91 1867.02 1180.86 Q1867.02 1182.34 1868.15 1183.19 Q1869.29 1184.03 1872.71 1184.79 L1874.17 1185.11 Q1878.71 1186.09 1880.61 1187.87 Q1882.53 1189.63 1882.53 1192.8 Q1882.53 1196.41 1879.66 1198.52 Q1876.81 1200.62 1871.81 1200.62 Q1869.73 1200.62 1867.46 1200.21 Q1865.21 1199.81 1862.71 1199 L1862.71 1194.61 Q1865.08 1195.83 1867.37 1196.46 Q1869.66 1197.06 1871.9 1197.06 Q1874.91 1197.06 1876.53 1196.04 Q1878.15 1195 1878.15 1193.12 Q1878.15 1191.39 1876.97 1190.46 Q1875.82 1189.54 1871.86 1188.68 L1870.38 1188.33 Q1866.42 1187.5 1864.66 1185.79 Q1862.9 1184.05 1862.9 1181.04 Q1862.9 1177.38 1865.49 1175.39 Q1868.08 1173.4 1872.85 1173.4 Q1875.21 1173.4 1877.3 1173.75 Q1879.38 1174.1 1881.14 1174.79 Z" fill="#000000" fill-rule="nonzero" fill-opacity="1" /><path clip-path="url(#clip530)" d="M1893.52 1166.67 L1893.52 1174.03 L1902.3 1174.03 L1902.3 1177.34 L1893.52 1177.34 L1893.52 1191.41 Q1893.52 1194.58 1894.38 1195.48 Q1895.26 1196.39 1897.92 1196.39 L1902.3 1196.39 L1902.3 1199.95 L1897.92 1199.95 Q1892.99 1199.95 1891.12 1198.12 Q1889.24 1196.27 1889.24 1191.41 L1889.24 1177.34 L1886.12 1177.34 L1886.12 1174.03 L1889.24 1174.03 L1889.24 1166.67 L1893.52 1166.67 Z" fill="#000000" fill-rule="nonzero" fill-opacity="1" /><path clip-path="url(#clip530)" d="M1907.9 1174.03 L1912.16 1174.03 L1912.16 1199.95 L1907.9 1199.95 L1907.9 1174.03 M1907.9 1163.93 L1912.16 1163.93 L1912.16 1169.33 L1907.9 1169.33 L1907.9 1163.93 Z" fill="#000000" fill-rule="nonzero" fill-opacity="1" /><path clip-path="url(#clip530)" d="M1941.26 1179 Q1942.85 1176.13 1945.08 1174.77 Q1947.3 1173.4 1950.31 1173.4 Q1954.36 1173.4 1956.56 1176.25 Q1958.76 1179.07 1958.76 1184.3 L1958.76 1199.95 L1954.47 1199.95 L1954.47 1184.44 Q1954.47 1180.72 1953.15 1178.91 Q1951.83 1177.11 1949.13 1177.11 Q1945.82 1177.11 1943.89 1179.3 Q1941.97 1181.5 1941.97 1185.3 L1941.97 1199.95 L1937.69 1199.95 L1937.69 1184.44 Q1937.69 1180.69 1936.37 1178.91 Q1935.05 1177.11 1932.3 1177.11 Q1929.03 1177.11 1927.11 1179.33 Q1925.19 1181.53 1925.19 1185.3 L1925.19 1199.95 L1920.91 1199.95 L1920.91 1174.03 L1925.19 1174.03 L1925.19 1178.05 Q1926.65 1175.67 1928.69 1174.54 Q1930.72 1173.4 1933.52 1173.4 Q1936.35 1173.4 1938.32 1174.84 Q1940.31 1176.27 1941.26 1179 Z" fill="#000000" fill-rule="nonzero" fill-opacity="1" /><path clip-path="url(#clip530)" d="M1979.03 1186.92 Q1973.87 1186.92 1971.88 1188.1 Q1969.89 1189.28 1969.89 1192.13 Q1969.89 1194.4 1971.37 1195.74 Q1972.88 1197.06 1975.45 1197.06 Q1978.99 1197.06 1981.12 1194.56 Q1983.27 1192.04 1983.27 1187.87 L1983.27 1186.92 L1979.03 1186.92 M1987.53 1185.16 L1987.53 1199.95 L1983.27 1199.95 L1983.27 1196.02 Q1981.81 1198.38 1979.64 1199.51 Q1977.46 1200.62 1974.31 1200.62 Q1970.33 1200.62 1967.97 1198.4 Q1965.63 1196.16 1965.63 1192.41 Q1965.63 1188.03 1968.55 1185.81 Q1971.49 1183.59 1977.3 1183.59 L1983.27 1183.59 L1983.27 1183.17 Q1983.27 1180.23 1981.32 1178.63 Q1979.4 1177.01 1975.91 1177.01 Q1973.69 1177.01 1971.58 1177.55 Q1969.47 1178.08 1967.53 1179.14 L1967.53 1175.21 Q1969.87 1174.3 1972.07 1173.86 Q1974.26 1173.4 1976.35 1173.4 Q1981.97 1173.4 1984.75 1176.32 Q1987.53 1179.23 1987.53 1185.16 Z" fill="#000000" fill-rule="nonzero" fill-opacity="1" /><path clip-path="url(#clip530)" d="M2000.51 1166.67 L2000.51 1174.03 L2009.29 1174.03 L2009.29 1177.34 L2000.51 1177.34 L2000.51 1191.41 Q2000.51 1194.58 2001.37 1195.48 Q2002.25 1196.39 2004.91 1196.39 L2009.29 1196.39 L2009.29 1199.95 L2004.91 1199.95 Q1999.98 1199.95 1998.11 1198.12 Q1996.23 1196.27 1996.23 1191.41 L1996.23 1177.34 L1993.11 1177.34 L1993.11 1174.03 L1996.23 1174.03 L1996.23 1166.67 L2000.51 1166.67 Z" fill="#000000" fill-rule="nonzero" fill-opacity="1" /><path clip-path="url(#clip530)" d="M2037.07 1185.92 L2037.07 1188.01 L2017.48 1188.01 Q2017.76 1192.41 2020.12 1194.72 Q2022.51 1197.01 2026.74 1197.01 Q2029.2 1197.01 2031.49 1196.41 Q2033.8 1195.81 2036.07 1194.61 L2036.07 1198.63 Q2033.78 1199.61 2031.37 1200.11 Q2028.96 1200.62 2026.49 1200.62 Q2020.28 1200.62 2016.65 1197.01 Q2013.04 1193.4 2013.04 1187.24 Q2013.04 1180.88 2016.46 1177.15 Q2019.91 1173.4 2025.75 1173.4 Q2030.98 1173.4 2034.01 1176.78 Q2037.07 1180.14 2037.07 1185.92 M2032.81 1184.67 Q2032.76 1181.18 2030.84 1179.1 Q2028.94 1177.01 2025.79 1177.01 Q2022.23 1177.01 2020.07 1179.03 Q2017.95 1181.04 2017.62 1184.7 L2032.81 1184.67 Z" fill="#000000" fill-rule="nonzero" fill-opacity="1" /><polyline clip-path="url(#clip530)" style="stroke:#1e90ff; stroke-linecap:round; stroke-linejoin:round; stroke-width:8; stroke-opacity:1; fill:none" points="2079.17,1182.67 2331.79,1182.67 "/>
<path clip-path="url(#clip530)" d="M2376.11 1199.23 L2376.11 1194.98 Q2377.87 1195.81 2379.68 1196.25 Q2381.48 1196.69 2383.22 1196.69 Q2387.85 1196.69 2390.28 1193.59 Q2392.73 1190.46 2393.08 1184.12 Q2391.74 1186.11 2389.68 1187.17 Q2387.62 1188.24 2385.12 1188.24 Q2379.93 1188.24 2376.9 1185.11 Q2373.89 1181.97 2373.89 1176.53 Q2373.89 1171.2 2377.04 1167.98 Q2380.19 1164.77 2385.42 1164.77 Q2391.41 1164.77 2394.56 1169.37 Q2397.73 1173.96 2397.73 1182.71 Q2397.73 1190.88 2393.84 1195.76 Q2389.98 1200.62 2383.43 1200.62 Q2381.67 1200.62 2379.86 1200.28 Q2378.06 1199.93 2376.11 1199.23 M2385.42 1184.58 Q2388.57 1184.58 2390.39 1182.43 Q2392.25 1180.28 2392.25 1176.53 Q2392.25 1172.8 2390.39 1170.65 Q2388.57 1168.47 2385.42 1168.47 Q2382.27 1168.47 2380.42 1170.65 Q2378.59 1172.8 2378.59 1176.53 Q2378.59 1180.28 2380.42 1182.43 Q2382.27 1184.58 2385.42 1184.58 Z" fill="#000000" fill-rule="nonzero" fill-opacity="1" /><path clip-path="url(#clip530)" d="M2406.18 1165.39 L2424.54 1165.39 L2424.54 1169.33 L2410.46 1169.33 L2410.46 1177.8 Q2411.48 1177.45 2412.5 1177.29 Q2413.52 1177.11 2414.54 1177.11 Q2420.33 1177.11 2423.7 1180.28 Q2427.08 1183.45 2427.08 1188.86 Q2427.08 1194.44 2423.61 1197.55 Q2420.14 1200.62 2413.82 1200.62 Q2411.64 1200.62 2409.38 1200.25 Q2407.13 1199.88 2404.72 1199.14 L2404.72 1194.44 Q2406.81 1195.58 2409.03 1196.13 Q2411.25 1196.69 2413.73 1196.69 Q2417.73 1196.69 2420.07 1194.58 Q2422.41 1192.48 2422.41 1188.86 Q2422.41 1185.25 2420.07 1183.15 Q2417.73 1181.04 2413.73 1181.04 Q2411.85 1181.04 2409.98 1181.46 Q2408.13 1181.87 2406.18 1182.75 L2406.18 1165.39 Z" fill="#000000" fill-rule="nonzero" fill-opacity="1" /><path clip-path="url(#clip530)" d="M2465.7 1184.74 Q2463.68 1184.74 2462.52 1186.46 Q2461.39 1188.17 2461.39 1191.23 Q2461.39 1194.23 2462.52 1195.97 Q2463.68 1197.68 2465.7 1197.68 Q2467.66 1197.68 2468.8 1195.97 Q2469.95 1194.23 2469.95 1191.23 Q2469.95 1188.19 2468.8 1186.48 Q2467.66 1184.74 2465.7 1184.74 M2465.7 1181.8 Q2469.35 1181.8 2471.51 1184.35 Q2473.66 1186.9 2473.66 1191.23 Q2473.66 1195.55 2471.48 1198.1 Q2469.33 1200.62 2465.7 1200.62 Q2461.99 1200.62 2459.84 1198.1 Q2457.69 1195.55 2457.69 1191.23 Q2457.69 1186.87 2459.84 1184.35 Q2462.01 1181.8 2465.7 1181.8 M2441.81 1167.71 Q2439.82 1167.71 2438.66 1169.44 Q2437.52 1171.16 2437.52 1174.17 Q2437.52 1177.22 2438.66 1178.93 Q2439.79 1180.65 2441.81 1180.65 Q2443.82 1180.65 2444.95 1178.93 Q2446.11 1177.22 2446.11 1174.17 Q2446.11 1171.18 2444.95 1169.44 Q2443.8 1167.71 2441.81 1167.71 M2462.71 1164.77 L2466.41 1164.77 L2444.79 1200.62 L2441.09 1200.62 L2462.71 1164.77 M2441.81 1164.77 Q2445.46 1164.77 2447.64 1167.31 Q2449.82 1169.84 2449.82 1174.17 Q2449.82 1178.54 2447.64 1181.06 Q2445.49 1183.59 2441.81 1183.59 Q2438.13 1183.59 2435.97 1181.06 Q2433.84 1178.52 2433.84 1174.17 Q2433.84 1169.86 2436 1167.31 Q2438.15 1164.77 2441.81 1164.77 Z" fill="#000000" fill-rule="nonzero" fill-opacity="1" /><path clip-path="url(#clip530)" d="M2521.88 1168.05 L2521.88 1172.98 Q2519.51 1170.79 2516.83 1169.7 Q2514.17 1168.61 2511.16 1168.61 Q2505.23 1168.61 2502.08 1172.24 Q2498.94 1175.86 2498.94 1182.71 Q2498.94 1189.54 2502.08 1193.17 Q2505.23 1196.78 2511.16 1196.78 Q2514.17 1196.78 2516.83 1195.69 Q2519.51 1194.61 2521.88 1192.41 L2521.88 1197.29 Q2519.42 1198.96 2516.67 1199.79 Q2513.94 1200.62 2510.88 1200.62 Q2503.03 1200.62 2498.52 1195.83 Q2494.01 1191.02 2494.01 1182.71 Q2494.01 1174.37 2498.52 1169.58 Q2503.03 1164.77 2510.88 1164.77 Q2513.98 1164.77 2516.71 1165.6 Q2519.47 1166.41 2521.88 1168.05 Z" fill="#000000" fill-rule="nonzero" fill-opacity="1" /><path clip-path="url(#clip530)" d="M2529.1 1165.39 L2533.77 1165.39 L2533.77 1199.95 L2529.1 1199.95 L2529.1 1165.39 Z" fill="#000000" fill-rule="nonzero" fill-opacity="1" /><path clip-path="url(#clip530)" d="M163.478 2672.72 L3952.76 2672.72 L3952.76 1526.5 L163.478 1526.5  Z" fill="#ffffff" fill-rule="evenodd" fill-opacity="1"/>
<defs>
  <clipPath id="clip533">
    <rect x="163" y="1526" width="3790" height="1147"/>
  </clipPath>
</defs>
<polyline clip-path="url(#clip533)" style="stroke:#000000; stroke-linecap:round; stroke-linejoin:round; stroke-width:2; stroke-opacity:0.3; fill:none" points="234.613,2672.72 234.613,1526.5 "/>
<polyline clip-path="url(#clip533)" style="stroke:#000000; stroke-linecap:round; stroke-linejoin:round; stroke-width:2; stroke-opacity:0.3; fill:none" points="1137.34,2672.72 1137.34,1526.5 "/>
<polyline clip-path="url(#clip533)" style="stroke:#000000; stroke-linecap:round; stroke-linejoin:round; stroke-width:2; stroke-opacity:0.3; fill:none" points="2040.06,2672.72 2040.06,1526.5 "/>
<polyline clip-path="url(#clip533)" style="stroke:#000000; stroke-linecap:round; stroke-linejoin:round; stroke-width:2; stroke-opacity:0.3; fill:none" points="2942.79,2672.72 2942.79,1526.5 "/>
<polyline clip-path="url(#clip533)" style="stroke:#000000; stroke-linecap:round; stroke-linejoin:round; stroke-width:2; stroke-opacity:0.3; fill:none" points="3845.51,2672.72 3845.51,1526.5 "/>
<polyline clip-path="url(#clip533)" style="stroke:#000000; stroke-linecap:round; stroke-linejoin:round; stroke-width:2; stroke-opacity:0.3; fill:none" points="163.478,2510.4 3952.76,2510.4 "/>
<polyline clip-path="url(#clip533)" style="stroke:#000000; stroke-linecap:round; stroke-linejoin:round; stroke-width:2; stroke-opacity:0.3; fill:none" points="163.478,2236.53 3952.76,2236.53 "/>
<polyline clip-path="url(#clip533)" style="stroke:#000000; stroke-linecap:round; stroke-linejoin:round; stroke-width:2; stroke-opacity:0.3; fill:none" points="163.478,1962.67 3952.76,1962.67 "/>
<polyline clip-path="url(#clip533)" style="stroke:#000000; stroke-linecap:round; stroke-linejoin:round; stroke-width:2; stroke-opacity:0.3; fill:none" points="163.478,1688.81 3952.76,1688.81 "/>
<polyline clip-path="url(#clip530)" style="stroke:#000000; stroke-linecap:round; stroke-linejoin:round; stroke-width:4; stroke-opacity:1; fill:none" points="163.478,2672.72 3952.76,2672.72 "/>
<polyline clip-path="url(#clip530)" style="stroke:#000000; stroke-linecap:round; stroke-linejoin:round; stroke-width:4; stroke-opacity:1; fill:none" points="234.613,2672.72 234.613,2653.82 "/>
<polyline clip-path="url(#clip530)" style="stroke:#000000; stroke-linecap:round; stroke-linejoin:round; stroke-width:4; stroke-opacity:1; fill:none" points="1137.34,2672.72 1137.34,2653.82 "/>
<polyline clip-path="url(#clip530)" style="stroke:#000000; stroke-linecap:round; stroke-linejoin:round; stroke-width:4; stroke-opacity:1; fill:none" points="2040.06,2672.72 2040.06,2653.82 "/>
<polyline clip-path="url(#clip530)" style="stroke:#000000; stroke-linecap:round; stroke-linejoin:round; stroke-width:4; stroke-opacity:1; fill:none" points="2942.79,2672.72 2942.79,2653.82 "/>
<polyline clip-path="url(#clip530)" style="stroke:#000000; stroke-linecap:round; stroke-linejoin:round; stroke-width:4; stroke-opacity:1; fill:none" points="3845.51,2672.72 3845.51,2653.82 "/>
<path clip-path="url(#clip530)" d="M234.613 2716.44 Q231.002 2716.44 229.173 2720 Q227.367 2723.55 227.367 2730.67 Q227.367 2737.78 229.173 2741.35 Q231.002 2744.89 234.613 2744.89 Q238.247 2744.89 240.052 2741.35 Q241.881 2737.78 241.881 2730.67 Q241.881 2723.55 240.052 2720 Q238.247 2716.44 234.613 2716.44 M234.613 2712.73 Q240.423 2712.73 243.478 2717.34 Q246.557 2721.92 246.557 2730.67 Q246.557 2739.4 243.478 2744.01 Q240.423 2748.59 234.613 2748.59 Q228.802 2748.59 225.724 2744.01 Q222.668 2739.4 222.668 2730.67 Q222.668 2721.92 225.724 2717.34 Q228.802 2712.73 234.613 2712.73 Z" fill="#000000" fill-rule="nonzero" fill-opacity="1" /><path clip-path="url(#clip530)" d="M1116.61 2743.98 L1132.93 2743.98 L1132.93 2747.92 L1110.98 2747.92 L1110.98 2743.98 Q1113.65 2741.23 1118.23 2736.6 Q1122.84 2731.95 1124.02 2730.61 Q1126.26 2728.08 1127.14 2726.35 Q1128.04 2724.59 1128.04 2722.9 Q1128.04 2720.14 1126.1 2718.41 Q1124.18 2716.67 1121.08 2716.67 Q1118.88 2716.67 1116.42 2717.43 Q1113.99 2718.2 1111.21 2719.75 L1111.21 2715.03 Q1114.04 2713.89 1116.49 2713.31 Q1118.95 2712.73 1120.98 2712.73 Q1126.35 2712.73 1129.55 2715.42 Q1132.74 2718.11 1132.74 2722.6 Q1132.74 2724.73 1131.93 2726.65 Q1131.15 2728.54 1129.04 2731.14 Q1128.46 2731.81 1125.36 2735.03 Q1122.26 2738.22 1116.61 2743.98 Z" fill="#000000" fill-rule="nonzero" fill-opacity="1" /><path clip-path="url(#clip530)" d="M1142.79 2713.36 L1161.15 2713.36 L1161.15 2717.3 L1147.07 2717.3 L1147.07 2725.77 Q1148.09 2725.42 1149.11 2725.26 Q1150.13 2725.07 1151.15 2725.07 Q1156.93 2725.07 1160.31 2728.24 Q1163.69 2731.42 1163.69 2736.83 Q1163.69 2742.41 1160.22 2745.51 Q1156.75 2748.59 1150.43 2748.59 Q1148.25 2748.59 1145.98 2748.22 Q1143.74 2747.85 1141.33 2747.11 L1141.33 2742.41 Q1143.41 2743.54 1145.64 2744.1 Q1147.86 2744.66 1150.34 2744.66 Q1154.34 2744.66 1156.68 2742.55 Q1159.02 2740.44 1159.02 2736.83 Q1159.02 2733.22 1156.68 2731.11 Q1154.34 2729.01 1150.34 2729.01 Q1148.46 2729.01 1146.59 2729.42 Q1144.73 2729.84 1142.79 2730.72 L1142.79 2713.36 Z" fill="#000000" fill-rule="nonzero" fill-opacity="1" /><path clip-path="url(#clip530)" d="M2014.76 2713.36 L2033.12 2713.36 L2033.12 2717.3 L2019.04 2717.3 L2019.04 2725.77 Q2020.06 2725.42 2021.08 2725.26 Q2022.1 2725.07 2023.12 2725.07 Q2028.91 2725.07 2032.28 2728.24 Q2035.66 2731.42 2035.66 2736.83 Q2035.66 2742.41 2032.19 2745.51 Q2028.72 2748.59 2022.4 2748.59 Q2020.22 2748.59 2017.96 2748.22 Q2015.71 2747.85 2013.3 2747.11 L2013.3 2742.41 Q2015.39 2743.54 2017.61 2744.1 Q2019.83 2744.66 2022.31 2744.66 Q2026.31 2744.66 2028.65 2742.55 Q2030.99 2740.44 2030.99 2736.83 Q2030.99 2733.22 2028.65 2731.11 Q2026.31 2729.01 2022.31 2729.01 Q2020.43 2729.01 2018.56 2729.42 Q2016.71 2729.84 2014.76 2730.72 L2014.76 2713.36 Z" fill="#000000" fill-rule="nonzero" fill-opacity="1" /><path clip-path="url(#clip530)" d="M2054.88 2716.44 Q2051.27 2716.44 2049.44 2720 Q2047.63 2723.55 2047.63 2730.67 Q2047.63 2737.78 2049.44 2741.35 Q2051.27 2744.89 2054.88 2744.89 Q2058.51 2744.89 2060.32 2741.35 Q2062.15 2737.78 2062.15 2730.67 Q2062.15 2723.55 2060.32 2720 Q2058.51 2716.44 2054.88 2716.44 M2054.88 2712.73 Q2060.69 2712.73 2063.74 2717.34 Q2066.82 2721.92 2066.82 2730.67 Q2066.82 2739.4 2063.74 2744.01 Q2060.69 2748.59 2054.88 2748.59 Q2049.07 2748.59 2045.99 2744.01 Q2042.93 2739.4 2042.93 2730.67 Q2042.93 2721.92 2045.99 2717.34 Q2049.07 2712.73 2054.88 2712.73 Z" fill="#000000" fill-rule="nonzero" fill-opacity="1" /><path clip-path="url(#clip530)" d="M2916.64 2713.36 L2938.86 2713.36 L2938.86 2715.35 L2926.32 2747.92 L2921.43 2747.92 L2933.24 2717.3 L2916.64 2717.3 L2916.64 2713.36 Z" fill="#000000" fill-rule="nonzero" fill-opacity="1" /><path clip-path="url(#clip530)" d="M2948.03 2713.36 L2966.39 2713.36 L2966.39 2717.3 L2952.31 2717.3 L2952.31 2725.77 Q2953.33 2725.42 2954.35 2725.26 Q2955.37 2725.07 2956.39 2725.07 Q2962.17 2725.07 2965.55 2728.24 Q2968.93 2731.42 2968.93 2736.83 Q2968.93 2742.41 2965.46 2745.51 Q2961.99 2748.59 2955.67 2748.59 Q2953.49 2748.59 2951.22 2748.22 Q2948.98 2747.85 2946.57 2747.11 L2946.57 2742.41 Q2948.66 2743.54 2950.88 2744.1 Q2953.1 2744.66 2955.58 2744.66 Q2959.58 2744.66 2961.92 2742.55 Q2964.26 2740.44 2964.26 2736.83 Q2964.26 2733.22 2961.92 2731.11 Q2959.58 2729.01 2955.58 2729.01 Q2953.7 2729.01 2951.83 2729.42 Q2949.97 2729.84 2948.03 2730.72 L2948.03 2713.36 Z" fill="#000000" fill-rule="nonzero" fill-opacity="1" /><path clip-path="url(#clip530)" d="M3805.12 2743.98 L3812.76 2743.98 L3812.76 2717.62 L3804.45 2719.29 L3804.45 2715.03 L3812.71 2713.36 L3817.39 2713.36 L3817.39 2743.98 L3825.03 2743.98 L3825.03 2747.92 L3805.12 2747.92 L3805.12 2743.98 Z" fill="#000000" fill-rule="nonzero" fill-opacity="1" /><path clip-path="url(#clip530)" d="M3844.47 2716.44 Q3840.86 2716.44 3839.03 2720 Q3837.23 2723.55 3837.23 2730.67 Q3837.23 2737.78 3839.03 2741.35 Q3840.86 2744.89 3844.47 2744.89 Q3848.1 2744.89 3849.91 2741.35 Q3851.74 2737.78 3851.74 2730.67 Q3851.74 2723.55 3849.91 2720 Q3848.1 2716.44 3844.47 2716.44 M3844.47 2712.73 Q3850.28 2712.73 3853.34 2717.34 Q3856.41 2721.92 3856.41 2730.67 Q3856.41 2739.4 3853.34 2744.01 Q3850.28 2748.59 3844.47 2748.59 Q3838.66 2748.59 3835.58 2744.01 Q3832.53 2739.4 3832.53 2730.67 Q3832.53 2721.92 3835.58 2717.34 Q3838.66 2712.73 3844.47 2712.73 Z" fill="#000000" fill-rule="nonzero" fill-opacity="1" /><path clip-path="url(#clip530)" d="M3874.63 2716.44 Q3871.02 2716.44 3869.19 2720 Q3867.39 2723.55 3867.39 2730.67 Q3867.39 2737.78 3869.19 2741.35 Q3871.02 2744.89 3874.63 2744.89 Q3878.27 2744.89 3880.07 2741.35 Q3881.9 2737.78 3881.9 2730.67 Q3881.9 2723.55 3880.07 2720 Q3878.27 2716.44 3874.63 2716.44 M3874.63 2712.73 Q3880.44 2712.73 3883.5 2717.34 Q3886.58 2721.92 3886.58 2730.67 Q3886.58 2739.4 3883.5 2744.01 Q3880.44 2748.59 3874.63 2748.59 Q3868.82 2748.59 3865.74 2744.01 Q3862.69 2739.4 3862.69 2730.67 Q3862.69 2721.92 3865.74 2717.34 Q3868.82 2712.73 3874.63 2712.73 Z" fill="#000000" fill-rule="nonzero" fill-opacity="1" /><polyline clip-path="url(#clip530)" style="stroke:#000000; stroke-linecap:round; stroke-linejoin:round; stroke-width:4; stroke-opacity:1; fill:none" points="163.478,2672.72 163.478,1526.5 "/>
<polyline clip-path="url(#clip530)" style="stroke:#000000; stroke-linecap:round; stroke-linejoin:round; stroke-width:4; stroke-opacity:1; fill:none" points="163.478,2510.4 182.376,2510.4 "/>
<polyline clip-path="url(#clip530)" style="stroke:#000000; stroke-linecap:round; stroke-linejoin:round; stroke-width:4; stroke-opacity:1; fill:none" points="163.478,2236.53 182.376,2236.53 "/>
<polyline clip-path="url(#clip530)" style="stroke:#000000; stroke-linecap:round; stroke-linejoin:round; stroke-width:4; stroke-opacity:1; fill:none" points="163.478,1962.67 182.376,1962.67 "/>
<polyline clip-path="url(#clip530)" style="stroke:#000000; stroke-linecap:round; stroke-linejoin:round; stroke-width:4; stroke-opacity:1; fill:none" points="163.478,1688.81 182.376,1688.81 "/>
<path clip-path="url(#clip530)" d="M42.9921 2510.85 L72.6679 2510.85 L72.6679 2514.78 L42.9921 2514.78 L42.9921 2510.85 Z" fill="#000000" fill-rule="nonzero" fill-opacity="1" /><path clip-path="url(#clip530)" d="M83.5706 2523.74 L91.2095 2523.74 L91.2095 2497.38 L82.8993 2499.04 L82.8993 2494.78 L91.1632 2493.12 L95.8391 2493.12 L95.8391 2523.74 L103.478 2523.74 L103.478 2527.68 L83.5706 2527.68 L83.5706 2523.74 Z" fill="#000000" fill-rule="nonzero" fill-opacity="1" /><path clip-path="url(#clip530)" d="M91.5335 2222.33 Q87.9224 2222.33 86.0937 2225.9 Q84.2882 2229.44 84.2882 2236.57 Q84.2882 2243.68 86.0937 2247.24 Q87.9224 2250.78 91.5335 2250.78 Q95.1678 2250.78 96.9733 2247.24 Q98.802 2243.68 98.802 2236.57 Q98.802 2229.44 96.9733 2225.9 Q95.1678 2222.33 91.5335 2222.33 M91.5335 2218.63 Q97.3437 2218.63 100.399 2223.24 Q103.478 2227.82 103.478 2236.57 Q103.478 2245.3 100.399 2249.9 Q97.3437 2254.49 91.5335 2254.49 Q85.7234 2254.49 82.6447 2249.9 Q79.5892 2245.3 79.5892 2236.57 Q79.5892 2227.82 82.6447 2223.24 Q85.7234 2218.63 91.5335 2218.63 Z" fill="#000000" fill-rule="nonzero" fill-opacity="1" /><path clip-path="url(#clip530)" d="M83.5706 1976.02 L91.2095 1976.02 L91.2095 1949.65 L82.8993 1951.32 L82.8993 1947.06 L91.1632 1945.39 L95.8391 1945.39 L95.8391 1976.02 L103.478 1976.02 L103.478 1979.95 L83.5706 1979.95 L83.5706 1976.02 Z" fill="#000000" fill-rule="nonzero" fill-opacity="1" /><path clip-path="url(#clip530)" d="M87.1586 1702.16 L103.478 1702.16 L103.478 1706.09 L81.5336 1706.09 L81.5336 1702.16 Q84.1956 1699.4 88.7789 1694.77 Q93.3854 1690.12 94.5659 1688.78 Q96.8113 1686.25 97.6909 1684.52 Q98.5937 1682.76 98.5937 1681.07 Q98.5937 1678.31 96.6492 1676.58 Q94.728 1674.84 91.6261 1674.84 Q89.4271 1674.84 86.9734 1675.61 Q84.5428 1676.37 81.7651 1677.92 L81.7651 1673.2 Q84.5891 1672.06 87.0428 1671.49 Q89.4965 1670.91 91.5335 1670.91 Q96.9039 1670.91 100.098 1673.59 Q103.293 1676.28 103.293 1680.77 Q103.293 1682.9 102.483 1684.82 Q101.696 1686.72 99.589 1689.31 Q99.0103 1689.98 95.9085 1693.2 Q92.8067 1696.39 87.1586 1702.16 Z" fill="#000000" fill-rule="nonzero" fill-opacity="1" /><path clip-path="url(#clip530)" d="M1474.85 1412.1 L1483.03 1412.1 L1483.03 1437.66 L1510.17 1412.1 L1520.7 1412.1 L1490.69 1440.29 L1522.85 1472.58 L1512.08 1472.58 L1483.03 1443.45 L1483.03 1472.58 L1474.85 1472.58 L1474.85 1412.1 Z" fill="#000000" fill-rule="nonzero" fill-opacity="1" /><path clip-path="url(#clip530)" d="M1548.09 1449.77 Q1539.05 1449.77 1535.57 1451.84 Q1532.09 1453.9 1532.09 1458.88 Q1532.09 1462.85 1534.68 1465.2 Q1537.31 1467.51 1541.81 1467.51 Q1548.01 1467.51 1551.73 1463.14 Q1555.5 1458.72 1555.5 1451.43 L1555.5 1449.77 L1548.09 1449.77 M1562.95 1446.69 L1562.95 1472.58 L1555.5 1472.58 L1555.5 1465.69 Q1552.95 1469.82 1549.14 1471.81 Q1545.33 1473.75 1539.82 1473.75 Q1532.86 1473.75 1528.72 1469.86 Q1524.63 1465.93 1524.63 1459.37 Q1524.63 1451.71 1529.74 1447.82 Q1534.88 1443.94 1545.05 1443.94 L1555.5 1443.94 L1555.5 1443.21 Q1555.5 1438.06 1552.1 1435.27 Q1548.74 1432.43 1542.62 1432.43 Q1538.73 1432.43 1535.04 1433.36 Q1531.36 1434.29 1527.95 1436.16 L1527.95 1429.27 Q1532.05 1427.69 1535.89 1426.92 Q1539.74 1426.11 1543.39 1426.11 Q1553.23 1426.11 1558.09 1431.22 Q1562.95 1436.32 1562.95 1446.69 Z" fill="#000000" fill-rule="nonzero" fill-opacity="1" /><path clip-path="url(#clip530)" d="M1578.31 1409.54 L1585.76 1409.54 L1585.76 1472.58 L1578.31 1472.58 L1578.31 1409.54 Z" fill="#000000" fill-rule="nonzero" fill-opacity="1" /><path clip-path="url(#clip530)" d="M1636.68 1435.92 Q1639.48 1430.89 1643.37 1428.5 Q1647.25 1426.11 1652.52 1426.11 Q1659.61 1426.11 1663.46 1431.09 Q1667.31 1436.04 1667.31 1445.19 L1667.31 1472.58 L1659.81 1472.58 L1659.81 1445.43 Q1659.81 1438.91 1657.5 1435.75 Q1655.19 1432.59 1650.45 1432.59 Q1644.66 1432.59 1641.3 1436.44 Q1637.94 1440.29 1637.94 1446.93 L1637.94 1472.58 L1630.44 1472.58 L1630.44 1445.43 Q1630.44 1438.87 1628.13 1435.75 Q1625.82 1432.59 1621 1432.59 Q1615.29 1432.59 1611.93 1436.48 Q1608.57 1440.33 1608.57 1446.93 L1608.57 1472.58 L1601.07 1472.58 L1601.07 1427.21 L1608.57 1427.21 L1608.57 1434.25 Q1611.12 1430.08 1614.68 1428.1 Q1618.25 1426.11 1623.15 1426.11 Q1628.09 1426.11 1631.54 1428.62 Q1635.02 1431.14 1636.68 1435.92 Z" fill="#000000" fill-rule="nonzero" fill-opacity="1" /><path clip-path="url(#clip530)" d="M1702.79 1449.77 Q1693.76 1449.77 1690.27 1451.84 Q1686.79 1453.9 1686.79 1458.88 Q1686.79 1462.85 1689.38 1465.2 Q1692.02 1467.51 1696.51 1467.51 Q1702.71 1467.51 1706.44 1463.14 Q1710.21 1458.72 1710.21 1451.43 L1710.21 1449.77 L1702.79 1449.77 M1717.66 1446.69 L1717.66 1472.58 L1710.21 1472.58 L1710.21 1465.69 Q1707.65 1469.82 1703.85 1471.81 Q1700.04 1473.75 1694.53 1473.75 Q1687.56 1473.75 1683.43 1469.86 Q1679.34 1465.93 1679.34 1459.37 Q1679.34 1451.71 1684.44 1447.82 Q1689.59 1443.94 1699.75 1443.94 L1710.21 1443.94 L1710.21 1443.21 Q1710.21 1438.06 1706.8 1435.27 Q1703.44 1432.43 1697.32 1432.43 Q1693.43 1432.43 1689.75 1433.36 Q1686.06 1434.29 1682.66 1436.16 L1682.66 1429.27 Q1686.75 1427.69 1690.6 1426.92 Q1694.45 1426.11 1698.09 1426.11 Q1707.94 1426.11 1712.8 1431.22 Q1717.66 1436.32 1717.66 1446.69 Z" fill="#000000" fill-rule="nonzero" fill-opacity="1" /><path clip-path="url(#clip530)" d="M1770.73 1445.19 L1770.73 1472.58 L1763.27 1472.58 L1763.27 1445.43 Q1763.27 1438.99 1760.76 1435.79 Q1758.25 1432.59 1753.23 1432.59 Q1747.19 1432.59 1743.71 1436.44 Q1740.22 1440.29 1740.22 1446.93 L1740.22 1472.58 L1732.73 1472.58 L1732.73 1427.21 L1740.22 1427.21 L1740.22 1434.25 Q1742.9 1430.16 1746.5 1428.14 Q1750.15 1426.11 1754.89 1426.11 Q1762.7 1426.11 1766.72 1430.97 Q1770.73 1435.79 1770.73 1445.19 Z" fill="#000000" fill-rule="nonzero" fill-opacity="1" /><path clip-path="url(#clip530)" d="M1848.54 1414.08 L1848.54 1422.06 Q1843.88 1419.83 1839.75 1418.74 Q1835.62 1417.65 1831.77 1417.65 Q1825.09 1417.65 1821.44 1420.24 Q1817.84 1422.83 1817.84 1427.61 Q1817.84 1431.62 1820.23 1433.69 Q1822.66 1435.71 1829.38 1436.97 L1834.32 1437.98 Q1843.48 1439.72 1847.81 1444.14 Q1852.19 1448.51 1852.19 1455.89 Q1852.19 1464.68 1846.27 1469.21 Q1840.4 1473.75 1829.02 1473.75 Q1824.72 1473.75 1819.86 1472.78 Q1815.04 1471.81 1809.86 1469.9 L1809.86 1461.48 Q1814.84 1464.27 1819.62 1465.69 Q1824.4 1467.11 1829.02 1467.11 Q1836.03 1467.11 1839.83 1464.35 Q1843.64 1461.6 1843.64 1456.49 Q1843.64 1452.04 1840.89 1449.53 Q1838.17 1447.01 1831.93 1445.76 L1826.95 1444.79 Q1817.8 1442.96 1813.71 1439.08 Q1809.61 1435.19 1809.61 1428.26 Q1809.61 1420.24 1815.24 1415.62 Q1820.92 1411 1830.84 1411 Q1835.09 1411 1839.51 1411.77 Q1843.93 1412.54 1848.54 1414.08 Z" fill="#000000" fill-rule="nonzero" fill-opacity="1" /><path clip-path="url(#clip530)" d="M1899.95 1435.92 Q1902.74 1430.89 1906.63 1428.5 Q1910.52 1426.11 1915.79 1426.11 Q1922.88 1426.11 1926.73 1431.09 Q1930.57 1436.04 1930.57 1445.19 L1930.57 1472.58 L1923.08 1472.58 L1923.08 1445.43 Q1923.08 1438.91 1920.77 1435.75 Q1918.46 1432.59 1913.72 1432.59 Q1907.93 1432.59 1904.57 1436.44 Q1901.21 1440.29 1901.21 1446.93 L1901.21 1472.58 L1893.71 1472.58 L1893.71 1445.43 Q1893.71 1438.87 1891.4 1435.75 Q1889.09 1432.59 1884.27 1432.59 Q1878.56 1432.59 1875.2 1436.48 Q1871.84 1440.33 1871.84 1446.93 L1871.84 1472.58 L1864.34 1472.58 L1864.34 1427.21 L1871.84 1427.21 L1871.84 1434.25 Q1874.39 1430.08 1877.95 1428.1 Q1881.52 1426.11 1886.42 1426.11 Q1891.36 1426.11 1894.8 1428.62 Q1898.29 1431.14 1899.95 1435.92 Z" fill="#000000" fill-rule="nonzero" fill-opacity="1" /><path clip-path="url(#clip530)" d="M1963.02 1432.43 Q1957.03 1432.43 1953.54 1437.13 Q1950.06 1441.79 1950.06 1449.93 Q1950.06 1458.07 1953.5 1462.77 Q1956.99 1467.43 1963.02 1467.43 Q1968.98 1467.43 1972.46 1462.73 Q1975.94 1458.03 1975.94 1449.93 Q1975.94 1441.87 1972.46 1437.17 Q1968.98 1432.43 1963.02 1432.43 M1963.02 1426.11 Q1972.74 1426.11 1978.29 1432.43 Q1983.84 1438.75 1983.84 1449.93 Q1983.84 1461.07 1978.29 1467.43 Q1972.74 1473.75 1963.02 1473.75 Q1953.26 1473.75 1947.71 1467.43 Q1942.2 1461.07 1942.2 1449.93 Q1942.2 1438.75 1947.71 1432.43 Q1953.26 1426.11 1963.02 1426.11 Z" fill="#000000" fill-rule="nonzero" fill-opacity="1" /><path clip-path="url(#clip530)" d="M2013.78 1432.43 Q2007.78 1432.43 2004.3 1437.13 Q2000.82 1441.79 2000.82 1449.93 Q2000.82 1458.07 2004.26 1462.77 Q2007.74 1467.43 2013.78 1467.43 Q2019.73 1467.43 2023.22 1462.73 Q2026.7 1458.03 2026.7 1449.93 Q2026.7 1441.87 2023.22 1437.17 Q2019.73 1432.43 2013.78 1432.43 M2013.78 1426.11 Q2023.5 1426.11 2029.05 1432.43 Q2034.6 1438.75 2034.6 1449.93 Q2034.6 1461.07 2029.05 1467.43 Q2023.5 1473.75 2013.78 1473.75 Q2004.02 1473.75 1998.47 1467.43 Q1992.96 1461.07 1992.96 1449.93 Q1992.96 1438.75 1998.47 1432.43 Q2004.02 1426.11 2013.78 1426.11 Z" fill="#000000" fill-rule="nonzero" fill-opacity="1" /><path clip-path="url(#clip530)" d="M2054.33 1414.32 L2054.33 1427.21 L2069.68 1427.21 L2069.68 1433 L2054.33 1433 L2054.33 1457.63 Q2054.33 1463.18 2055.83 1464.76 Q2057.37 1466.34 2062.03 1466.34 L2069.68 1466.34 L2069.68 1472.58 L2062.03 1472.58 Q2053.4 1472.58 2050.12 1469.38 Q2046.84 1466.14 2046.84 1457.63 L2046.84 1433 L2041.37 1433 L2041.37 1427.21 L2046.84 1427.21 L2046.84 1414.32 L2054.33 1414.32 Z" fill="#000000" fill-rule="nonzero" fill-opacity="1" /><path clip-path="url(#clip530)" d="M2117.2 1445.19 L2117.2 1472.58 L2109.75 1472.58 L2109.75 1445.43 Q2109.75 1438.99 2107.23 1435.79 Q2104.72 1432.59 2099.7 1432.59 Q2093.66 1432.59 2090.18 1436.44 Q2086.7 1440.29 2086.7 1446.93 L2086.7 1472.58 L2079.2 1472.58 L2079.2 1409.54 L2086.7 1409.54 L2086.7 1434.25 Q2089.37 1430.16 2092.97 1428.14 Q2096.62 1426.11 2101.36 1426.11 Q2109.18 1426.11 2113.19 1430.97 Q2117.2 1435.79 2117.2 1445.19 Z" fill="#000000" fill-rule="nonzero" fill-opacity="1" /><path clip-path="url(#clip530)" d="M2170.87 1448.03 L2170.87 1451.67 L2136.6 1451.67 Q2137.09 1459.37 2141.22 1463.42 Q2145.39 1467.43 2152.81 1467.43 Q2157.1 1467.43 2161.11 1466.38 Q2165.16 1465.32 2169.13 1463.22 L2169.13 1470.27 Q2165.12 1471.97 2160.91 1472.86 Q2156.7 1473.75 2152.36 1473.75 Q2141.5 1473.75 2135.14 1467.43 Q2128.83 1461.11 2128.83 1450.34 Q2128.83 1439.2 2134.82 1432.67 Q2140.86 1426.11 2151.06 1426.11 Q2160.22 1426.11 2165.53 1432.03 Q2170.87 1437.9 2170.87 1448.03 M2163.42 1445.84 Q2163.34 1439.72 2159.98 1436.08 Q2156.66 1432.43 2151.15 1432.43 Q2144.91 1432.43 2141.14 1435.96 Q2137.41 1439.48 2136.85 1445.88 L2163.42 1445.84 Z" fill="#000000" fill-rule="nonzero" fill-opacity="1" /><path clip-path="url(#clip530)" d="M2209.4 1434.17 Q2208.14 1433.44 2206.64 1433.12 Q2205.18 1432.76 2203.4 1432.76 Q2197.08 1432.76 2193.68 1436.89 Q2190.32 1440.98 2190.32 1448.68 L2190.32 1472.58 L2182.82 1472.58 L2182.82 1427.21 L2190.32 1427.21 L2190.32 1434.25 Q2192.67 1430.12 2196.44 1428.14 Q2200.2 1426.11 2205.59 1426.11 Q2206.36 1426.11 2207.29 1426.23 Q2208.22 1426.31 2209.36 1426.52 L2209.4 1434.17 Z" fill="#000000" fill-rule="nonzero" fill-opacity="1" /><path clip-path="url(#clip530)" d="M2243.91 1412.1 L2282.15 1412.1 L2282.15 1418.98 L2252.09 1418.98 L2252.09 1436.89 L2280.9 1436.89 L2280.9 1443.77 L2252.09 1443.77 L2252.09 1465.69 L2282.88 1465.69 L2282.88 1472.58 L2243.91 1472.58 L2243.91 1412.1 Z" fill="#000000" fill-rule="nonzero" fill-opacity="1" /><path clip-path="url(#clip530)" d="M2324.93 1428.54 L2324.93 1435.59 Q2321.77 1433.97 2318.37 1433.16 Q2314.96 1432.35 2311.32 1432.35 Q2305.77 1432.35 2302.97 1434.05 Q2300.22 1435.75 2300.22 1439.16 Q2300.22 1441.75 2302.2 1443.25 Q2304.19 1444.71 2310.18 1446.04 L2312.74 1446.61 Q2320.68 1448.31 2324 1451.43 Q2327.36 1454.51 2327.36 1460.06 Q2327.36 1466.38 2322.34 1470.06 Q2317.35 1473.75 2308.6 1473.75 Q2304.96 1473.75 2300.99 1473.02 Q2297.06 1472.33 2292.68 1470.92 L2292.68 1463.22 Q2296.82 1465.37 2300.83 1466.46 Q2304.84 1467.51 2308.77 1467.51 Q2314.03 1467.51 2316.87 1465.73 Q2319.7 1463.91 2319.7 1460.63 Q2319.7 1457.59 2317.64 1455.97 Q2315.61 1454.35 2308.69 1452.85 L2306.09 1452.24 Q2299.17 1450.78 2296.09 1447.78 Q2293.01 1444.75 2293.01 1439.48 Q2293.01 1433.08 2297.55 1429.6 Q2302.08 1426.11 2310.43 1426.11 Q2314.56 1426.11 2318.21 1426.72 Q2321.85 1427.33 2324.93 1428.54 Z" fill="#000000" fill-rule="nonzero" fill-opacity="1" /><path clip-path="url(#clip530)" d="M2346.6 1414.32 L2346.6 1427.21 L2361.95 1427.21 L2361.95 1433 L2346.6 1433 L2346.6 1457.63 Q2346.6 1463.18 2348.1 1464.76 Q2349.64 1466.34 2354.3 1466.34 L2361.95 1466.34 L2361.95 1472.58 L2354.3 1472.58 Q2345.67 1472.58 2342.39 1469.38 Q2339.11 1466.14 2339.11 1457.63 L2339.11 1433 L2333.64 1433 L2333.64 1427.21 L2339.11 1427.21 L2339.11 1414.32 L2346.6 1414.32 Z" fill="#000000" fill-rule="nonzero" fill-opacity="1" /><path clip-path="url(#clip530)" d="M2371.76 1427.21 L2379.21 1427.21 L2379.21 1472.58 L2371.76 1472.58 L2371.76 1427.21 M2371.76 1409.54 L2379.21 1409.54 L2379.21 1418.98 L2371.76 1418.98 L2371.76 1409.54 Z" fill="#000000" fill-rule="nonzero" fill-opacity="1" /><path clip-path="url(#clip530)" d="M2430.13 1435.92 Q2432.93 1430.89 2436.82 1428.5 Q2440.7 1426.11 2445.97 1426.11 Q2453.06 1426.11 2456.91 1431.09 Q2460.76 1436.04 2460.76 1445.19 L2460.76 1472.58 L2453.26 1472.58 L2453.26 1445.43 Q2453.26 1438.91 2450.95 1435.75 Q2448.64 1432.59 2443.9 1432.59 Q2438.11 1432.59 2434.75 1436.44 Q2431.39 1440.29 2431.39 1446.93 L2431.39 1472.58 L2423.89 1472.58 L2423.89 1445.43 Q2423.89 1438.87 2421.58 1435.75 Q2419.28 1432.59 2414.45 1432.59 Q2408.74 1432.59 2405.38 1436.48 Q2402.02 1440.33 2402.02 1446.93 L2402.02 1472.58 L2394.52 1472.58 L2394.52 1427.21 L2402.02 1427.21 L2402.02 1434.25 Q2404.57 1430.08 2408.14 1428.1 Q2411.7 1426.11 2416.6 1426.11 Q2421.54 1426.11 2424.99 1428.62 Q2428.47 1431.14 2430.13 1435.92 Z" fill="#000000" fill-rule="nonzero" fill-opacity="1" /><path clip-path="url(#clip530)" d="M2496.24 1449.77 Q2487.21 1449.77 2483.73 1451.84 Q2480.24 1453.9 2480.24 1458.88 Q2480.24 1462.85 2482.83 1465.2 Q2485.47 1467.51 2489.96 1467.51 Q2496.16 1467.51 2499.89 1463.14 Q2503.66 1458.72 2503.66 1451.43 L2503.66 1449.77 L2496.24 1449.77 M2511.11 1446.69 L2511.11 1472.58 L2503.66 1472.58 L2503.66 1465.69 Q2501.1 1469.82 2497.3 1471.81 Q2493.49 1473.75 2487.98 1473.75 Q2481.01 1473.75 2476.88 1469.86 Q2472.79 1465.93 2472.79 1459.37 Q2472.79 1451.71 2477.89 1447.82 Q2483.04 1443.94 2493.2 1443.94 L2503.66 1443.94 L2503.66 1443.21 Q2503.66 1438.06 2500.25 1435.27 Q2496.89 1432.43 2490.77 1432.43 Q2486.88 1432.43 2483.2 1433.36 Q2479.51 1434.29 2476.11 1436.16 L2476.11 1429.27 Q2480.2 1427.69 2484.05 1426.92 Q2487.9 1426.11 2491.54 1426.11 Q2501.39 1426.11 2506.25 1431.22 Q2511.11 1436.32 2511.11 1446.69 Z" fill="#000000" fill-rule="nonzero" fill-opacity="1" /><path clip-path="url(#clip530)" d="M2533.83 1414.32 L2533.83 1427.21 L2549.19 1427.21 L2549.19 1433 L2533.83 1433 L2533.83 1457.63 Q2533.83 1463.18 2535.33 1464.76 Q2536.87 1466.34 2541.53 1466.34 L2549.19 1466.34 L2549.19 1472.58 L2541.53 1472.58 Q2532.9 1472.58 2529.62 1469.38 Q2526.34 1466.14 2526.34 1457.63 L2526.34 1433 L2520.87 1433 L2520.87 1427.21 L2526.34 1427.21 L2526.34 1414.32 L2533.83 1414.32 Z" fill="#000000" fill-rule="nonzero" fill-opacity="1" /><path clip-path="url(#clip530)" d="M2597.8 1448.03 L2597.8 1451.67 L2563.53 1451.67 Q2564.01 1459.37 2568.15 1463.42 Q2572.32 1467.43 2579.73 1467.43 Q2584.03 1467.43 2588.04 1466.38 Q2592.09 1465.32 2596.06 1463.22 L2596.06 1470.27 Q2592.05 1471.97 2587.83 1472.86 Q2583.62 1473.75 2579.29 1473.75 Q2568.43 1473.75 2562.07 1467.43 Q2555.75 1461.11 2555.75 1450.34 Q2555.75 1439.2 2561.75 1432.67 Q2567.78 1426.11 2577.99 1426.11 Q2587.14 1426.11 2592.45 1432.03 Q2597.8 1437.9 2597.8 1448.03 M2590.34 1445.84 Q2590.26 1439.72 2586.9 1436.08 Q2583.58 1432.43 2578.07 1432.43 Q2571.83 1432.43 2568.06 1435.96 Q2564.34 1439.48 2563.77 1445.88 L2590.34 1445.84 Z" fill="#000000" fill-rule="nonzero" fill-opacity="1" /><path clip-path="url(#clip530)" d="M2638.96 1428.54 L2638.96 1435.59 Q2635.8 1433.97 2632.39 1433.16 Q2628.99 1432.35 2625.34 1432.35 Q2619.8 1432.35 2617 1434.05 Q2614.25 1435.75 2614.25 1439.16 Q2614.25 1441.75 2616.23 1443.25 Q2618.22 1444.71 2624.21 1446.04 L2626.76 1446.61 Q2634.7 1448.31 2638.02 1451.43 Q2641.39 1454.51 2641.39 1460.06 Q2641.39 1466.38 2636.36 1470.06 Q2631.38 1473.75 2622.63 1473.75 Q2618.98 1473.75 2615.01 1473.02 Q2611.09 1472.33 2606.71 1470.92 L2606.71 1463.22 Q2610.84 1465.37 2614.85 1466.46 Q2618.86 1467.51 2622.79 1467.51 Q2628.06 1467.51 2630.89 1465.73 Q2633.73 1463.91 2633.73 1460.63 Q2633.73 1457.59 2631.66 1455.97 Q2629.64 1454.35 2622.71 1452.85 L2620.12 1452.24 Q2613.19 1450.78 2610.11 1447.78 Q2607.03 1444.75 2607.03 1439.48 Q2607.03 1433.08 2611.57 1429.6 Q2616.11 1426.11 2624.45 1426.11 Q2628.59 1426.11 2632.23 1426.72 Q2635.88 1427.33 2638.96 1428.54 Z" fill="#000000" fill-rule="nonzero" fill-opacity="1" /><polyline clip-path="url(#clip533)" style="stroke:#1e90ff; stroke-linecap:round; stroke-linejoin:round; stroke-width:8; stroke-opacity:1; fill:none" points="270.722,2188.62 306.831,2329.37 342.94,2261.78 379.049,2276.42 415.158,2303.37 451.267,2080.15 487.376,1930.93 523.485,2082.47 559.594,2013.02 595.703,2066.91 631.812,2175.54 667.921,2132.83 704.03,2344.45 740.139,2118.86 776.248,2271.56 812.357,2340.74 848.466,2220.21 884.575,1964.83 920.684,2311.06 956.793,2295.91 992.902,2129.73 1029.01,2101.43 1065.12,1800.09 1101.23,1967.69 1137.34,2215.35 1173.45,1982.3 1209.56,2277.88 1245.66,2045.68 1281.77,1954.9 1317.88,2181.04 1353.99,2050.56 1390.1,2145.97 1426.21,2212.73 1462.32,2250.88 1498.43,2388.45 1534.54,2026.42 1570.65,2057.15 1606.75,2077.47 1642.86,2325.96 1678.97,2126.33 1715.08,2156.52 1751.19,2313.24 1787.3,2260.86 1823.41,2343.84 1859.52,2301.07 1895.63,2205.52 1931.74,2280.93 1967.84,2339.57 2003.95,2210.61 2040.06,2192.2 2076.17,2272.3 2112.28,2155.61 2148.39,2096.59 2184.5,2265.42 2220.61,2247.33 2256.72,2152.31 2292.83,2131.27 2328.93,1859.26 2365.04,1960.67 2401.15,2124.9 2437.26,2070.1 2473.37,1751.05 2509.48,2046.75 2545.59,2006.04 2581.7,2082.88 2617.81,2298.85 2653.92,2285.88 2690.02,1865.84 2726.13,2020.39 2762.24,2180.77 2798.35,2127.06 2834.46,2188.74 2870.57,2279.81 2906.68,2074.76 2942.79,2033.78 2978.9,2184.32 3015.01,2240.76 3051.11,2085.19 3087.22,2127.83 3123.33,2033.98 3159.44,2011.34 3195.55,2084.56 3231.66,2072.88 3267.77,2251.17 3303.88,2397 3339.99,2182.42 3376.1,2118.91 3412.2,2170.94 3448.31,2119.96 3484.42,2138.98 3520.53,2246.33 3556.64,2211.71 3592.75,2238.04 3628.86,2139.58 3664.97,2093.88 3701.08,2181.37 3737.19,2262.94 3773.29,2299 3809.4,2267.48 3845.51,2428.68 "/>
<path clip-path="url(#clip533)" d="M270.722 2533.04 L306.831 2517.99 L342.94 2454 L379.049 2445.36 L415.158 2489.58 L451.267 2293.41 L487.376 2122.87 L523.485 2271.14 L559.594 2202.96 L595.703 2243.79 L631.812 2348.8 L667.921 2314.56 L704.03 2526.78 L740.139 2315.84 L776.248 2471.62 L812.357 2540.35 L848.466 2427.89 L884.575 2147.11 L920.684 2475.17 L956.793 2486.31 L992.902 2303.38 L1029.01 2288.67 L1065.12 1976.64 L1101.23 2131.29 L1137.34 2388.35 L1173.45 2175.27 L1209.56 2450.3 L1245.66 2239.33 L1281.77 2159.81 L1317.88 2362.81 L1353.99 2240.99 L1390.1 2320.21 L1426.21 2406.43 L1462.32 2443.92 L1498.43 2581.99 L1534.54 2218.22 L1570.65 2218.2 L1606.75 2245.79 L1642.86 2505.39 L1678.97 2333.07 L1715.08 2342.46 L1751.19 2494.96 L1787.3 2456.3 L1823.41 2542.33 L1859.52 2503.52 L1895.63 2420.99 L1931.74 2453.15 L1967.84 2530.88 L2003.95 2402.16 L2040.06 2368.66 L2076.17 2458.89 L2112.28 2355.28 L2148.39 2287.34 L2184.5 2437.84 L2220.61 2436.74 L2256.72 2354.9 L2292.83 2327.83 L2328.93 2059.45 L2365.04 2126.86 L2401.15 2293.7 L2437.26 2246.23 L2473.37 1943.17 L2509.48 2203.64 L2545.59 2177.26 L2581.7 2243.99 L2617.81 2479.7 L2653.92 2484.57 L2690.02 2067.16 L2726.13 2180.15 L2762.24 2358.76 L2798.35 2323.86 L2834.46 2378.86 L2870.57 2481.08 L2906.68 2273.75 L2942.79 2203.9 L2978.9 2363.01 L3015.01 2427.19 L3051.11 2272.59 L3087.22 2295.8 L3123.33 2215.73 L3159.44 2174.89 L3195.55 2259.94 L3231.66 2238.04 L3267.77 2434.94 L3303.88 2587.24 L3339.99 2380.95 L3376.1 2310.84 L3412.2 2362.49 L3448.31 2302.9 L3484.42 2319.72 L3520.53 2429.07 L3556.64 2403.14 L3592.75 2414.56 L3628.86 2322.67 L3664.97 2292.04 L3701.08 2365.77 L3737.19 2455.85 L3773.29 2485.59 L3809.4 2464.34 L3845.51 2640.28 L3845.51 2217.09 L3809.4 2070.62 L3773.29 2112.41 L3737.19 2070.02 L3701.08 1996.96 L3664.97 1895.72 L3628.86 1956.5 L3592.75 2061.52 L3556.64 2020.27 L3520.53 2063.59 L3484.42 1958.24 L3448.31 1937.03 L3412.2 1979.38 L3376.1 1926.98 L3339.99 1983.88 L3303.88 2206.76 L3267.77 2067.4 L3231.66 1907.73 L3195.55 1909.18 L3159.44 1847.78 L3123.33 1852.23 L3087.22 1959.87 L3051.11 1897.78 L3015.01 2054.33 L2978.9 2005.63 L2942.79 1863.66 L2906.68 1875.77 L2870.57 2078.55 L2834.46 1998.62 L2798.35 1930.26 L2762.24 2002.78 L2726.13 1860.64 L2690.02 1664.52 L2653.92 2087.19 L2617.81 2118 L2581.7 1921.78 L2545.59 1834.82 L2509.48 1889.87 L2473.37 1558.94 L2437.26 1893.97 L2401.15 1956.09 L2365.04 1794.47 L2328.93 1659.07 L2292.83 1934.71 L2256.72 1949.72 L2220.61 2057.92 L2184.5 2093 L2148.39 1905.84 L2112.28 1955.93 L2076.17 2085.71 L2040.06 2015.74 L2003.95 2019.06 L1967.84 2148.26 L1931.74 2108.71 L1895.63 1990.06 L1859.52 2098.62 L1823.41 2145.35 L1787.3 2065.41 L1751.19 2131.51 L1715.08 1970.58 L1678.97 1919.58 L1642.86 2146.53 L1606.75 1909.15 L1570.65 1896.11 L1534.54 1834.62 L1498.43 2194.9 L1462.32 2057.84 L1426.21 2019.02 L1390.1 1971.73 L1353.99 1860.14 L1317.88 1999.28 L1281.77 1750 L1245.66 1852.03 L1209.56 2105.45 L1173.45 1789.32 L1137.34 2042.34 L1101.23 1804.09 L1065.12 1623.54 L1029.01 1914.19 L992.902 1956.08 L956.793 2105.51 L920.684 2146.95 L884.575 1782.55 L848.466 2012.53 L812.357 2141.13 L776.248 2071.5 L740.139 1921.88 L704.03 2162.13 L667.921 1951.09 L631.812 2002.29 L595.703 1890.03 L559.594 1823.08 L523.485 1893.79 L487.376 1738.99 L451.267 1866.89 L415.158 2117.15 L379.049 2107.48 L342.94 2069.56 L306.831 2140.74 L270.722 1844.21  Z" fill="#1e90ff" fill-rule="evenodd" fill-opacity="0.2"/>
<polyline clip-path="url(#clip533)" style="stroke:#1e90ff; stroke-linecap:round; stroke-linejoin:round; stroke-width:8; stroke-opacity:1; fill:none" points="270.722,2188.62 306.831,2329.37 342.94,2261.78 379.049,2276.42 415.158,2303.37 451.267,2080.15 487.376,1930.93 523.485,2082.47 559.594,2013.02 595.703,2066.91 631.812,2175.54 667.921,2132.83 704.03,2344.45 740.139,2118.86 776.248,2271.56 812.357,2340.74 848.466,2220.21 884.575,1964.83 920.684,2311.06 956.793,2295.91 992.902,2129.73 1029.01,2101.43 1065.12,1800.09 1101.23,1967.69 1137.34,2215.35 1173.45,1982.3 1209.56,2277.88 1245.66,2045.68 1281.77,1954.9 1317.88,2181.04 1353.99,2050.56 1390.1,2145.97 1426.21,2212.73 1462.32,2250.88 1498.43,2388.45 1534.54,2026.42 1570.65,2057.15 1606.75,2077.47 1642.86,2325.96 1678.97,2126.33 1715.08,2156.52 1751.19,2313.24 1787.3,2260.86 1823.41,2343.84 1859.52,2301.07 1895.63,2205.52 1931.74,2280.93 1967.84,2339.57 2003.95,2210.61 2040.06,2192.2 2076.17,2272.3 2112.28,2155.61 2148.39,2096.59 2184.5,2265.42 2220.61,2247.33 2256.72,2152.31 2292.83,2131.27 2328.93,1859.26 2365.04,1960.67 2401.15,2124.9 2437.26,2070.1 2473.37,1751.05 2509.48,2046.75 2545.59,2006.04 2581.7,2082.88 2617.81,2298.85 2653.92,2285.88 2690.02,1865.84 2726.13,2020.39 2762.24,2180.77 2798.35,2127.06 2834.46,2188.74 2870.57,2279.81 2906.68,2074.76 2942.79,2033.78 2978.9,2184.32 3015.01,2240.76 3051.11,2085.19 3087.22,2127.83 3123.33,2033.98 3159.44,2011.34 3195.55,2084.56 3231.66,2072.88 3267.77,2251.17 3303.88,2397 3339.99,2182.42 3376.1,2118.91 3412.2,2170.94 3448.31,2119.96 3484.42,2138.98 3520.53,2246.33 3556.64,2211.71 3592.75,2238.04 3628.86,2139.58 3664.97,2093.88 3701.08,2181.37 3737.19,2262.94 3773.29,2299 3809.4,2267.48 3845.51,2428.68 "/>
<path clip-path="url(#clip530)" d="M1310.71 2634.51 L2805.53 2634.51 L2805.53 2530.83 L1310.71 2530.83  Z" fill="#ffffff" fill-rule="evenodd" fill-opacity="1"/>
<polyline clip-path="url(#clip530)" style="stroke:#000000; stroke-linecap:round; stroke-linejoin:round; stroke-width:4; stroke-opacity:1; fill:none" points="1310.71,2634.51 2805.53,2634.51 2805.53,2530.83 1310.71,2530.83 1310.71,2634.51 "/>
<polyline clip-path="url(#clip530)" style="stroke:#1e90ff; stroke-linecap:round; stroke-linejoin:round; stroke-width:8; stroke-opacity:1; fill:none" points="1352.81,2582.67 1605.43,2582.67 "/>
<path clip-path="url(#clip530)" d="M1669.78 2566.53 L1669.78 2571.09 Q1667.11 2569.81 1664.75 2569.19 Q1662.39 2568.56 1660.19 2568.56 Q1656.37 2568.56 1654.29 2570.05 Q1652.23 2571.53 1652.23 2574.26 Q1652.23 2576.55 1653.6 2577.73 Q1654.98 2578.89 1658.83 2579.61 L1661.65 2580.18 Q1666.88 2581.18 1669.36 2583.7 Q1671.86 2586.2 1671.86 2590.42 Q1671.86 2595.44 1668.48 2598.03 Q1665.12 2600.62 1658.62 2600.62 Q1656.16 2600.62 1653.39 2600.07 Q1650.63 2599.51 1647.67 2598.42 L1647.67 2593.61 Q1650.52 2595.21 1653.25 2596.02 Q1655.98 2596.83 1658.62 2596.83 Q1662.62 2596.83 1664.8 2595.25 Q1666.97 2593.68 1666.97 2590.76 Q1666.97 2588.22 1665.4 2586.78 Q1663.85 2585.35 1660.28 2584.63 L1657.44 2584.07 Q1652.21 2583.03 1649.87 2580.81 Q1647.53 2578.59 1647.53 2574.63 Q1647.53 2570.05 1650.75 2567.41 Q1653.99 2564.77 1659.66 2564.77 Q1662.09 2564.77 1664.61 2565.21 Q1667.14 2565.65 1669.78 2566.53 Z" fill="#000000" fill-rule="nonzero" fill-opacity="1" /><path clip-path="url(#clip530)" d="M1683.18 2566.67 L1683.18 2574.03 L1691.95 2574.03 L1691.95 2577.34 L1683.18 2577.34 L1683.18 2591.41 Q1683.18 2594.58 1684.03 2595.48 Q1684.91 2596.39 1687.58 2596.39 L1691.95 2596.39 L1691.95 2599.95 L1687.58 2599.95 Q1682.65 2599.95 1680.77 2598.12 Q1678.9 2596.27 1678.9 2591.41 L1678.9 2577.34 L1675.77 2577.34 L1675.77 2574.03 L1678.9 2574.03 L1678.9 2566.67 L1683.18 2566.67 Z" fill="#000000" fill-rule="nonzero" fill-opacity="1" /><path clip-path="url(#clip530)" d="M1709.34 2586.92 Q1704.17 2586.92 1702.18 2588.1 Q1700.19 2589.28 1700.19 2592.13 Q1700.19 2594.4 1701.67 2595.74 Q1703.18 2597.06 1705.75 2597.06 Q1709.29 2597.06 1711.42 2594.56 Q1713.57 2592.04 1713.57 2587.87 L1713.57 2586.92 L1709.34 2586.92 M1717.83 2585.16 L1717.83 2599.95 L1713.57 2599.95 L1713.57 2596.02 Q1712.11 2598.38 1709.94 2599.51 Q1707.76 2600.62 1704.61 2600.62 Q1700.63 2600.62 1698.27 2598.4 Q1695.93 2596.16 1695.93 2592.41 Q1695.93 2588.03 1698.85 2585.81 Q1701.79 2583.59 1707.6 2583.59 L1713.57 2583.59 L1713.57 2583.17 Q1713.57 2580.23 1711.63 2578.63 Q1709.71 2577.01 1706.21 2577.01 Q1703.99 2577.01 1701.88 2577.55 Q1699.78 2578.08 1697.83 2579.14 L1697.83 2575.21 Q1700.17 2574.3 1702.37 2573.86 Q1704.57 2573.4 1706.65 2573.4 Q1712.28 2573.4 1715.05 2576.32 Q1717.83 2579.23 1717.83 2585.16 Z" fill="#000000" fill-rule="nonzero" fill-opacity="1" /><path clip-path="url(#clip530)" d="M1730.82 2566.67 L1730.82 2574.03 L1739.59 2574.03 L1739.59 2577.34 L1730.82 2577.34 L1730.82 2591.41 Q1730.82 2594.58 1731.67 2595.48 Q1732.55 2596.39 1735.22 2596.39 L1739.59 2596.39 L1739.59 2599.95 L1735.22 2599.95 Q1730.28 2599.95 1728.41 2598.12 Q1726.53 2596.27 1726.53 2591.41 L1726.53 2577.34 L1723.41 2577.34 L1723.41 2574.03 L1726.53 2574.03 L1726.53 2566.67 L1730.82 2566.67 Z" fill="#000000" fill-rule="nonzero" fill-opacity="1" /><path clip-path="url(#clip530)" d="M1767.37 2585.92 L1767.37 2588.01 L1747.78 2588.01 Q1748.06 2592.41 1750.42 2594.72 Q1752.81 2597.01 1757.04 2597.01 Q1759.5 2597.01 1761.79 2596.41 Q1764.1 2595.81 1766.37 2594.61 L1766.37 2598.63 Q1764.08 2599.61 1761.67 2600.11 Q1759.27 2600.62 1756.79 2600.62 Q1750.59 2600.62 1746.95 2597.01 Q1743.34 2593.4 1743.34 2587.24 Q1743.34 2580.88 1746.77 2577.15 Q1750.22 2573.4 1756.05 2573.4 Q1761.28 2573.4 1764.31 2576.78 Q1767.37 2580.14 1767.37 2585.92 M1763.11 2584.67 Q1763.06 2581.18 1761.14 2579.1 Q1759.24 2577.01 1756.09 2577.01 Q1752.53 2577.01 1750.38 2579.03 Q1748.25 2581.04 1747.92 2584.7 L1763.11 2584.67 Z" fill="#000000" fill-rule="nonzero" fill-opacity="1" /><path clip-path="url(#clip530)" d="M1794.06 2596.02 L1810.38 2596.02 L1810.38 2599.95 L1788.43 2599.95 L1788.43 2596.02 Q1791.09 2593.26 1795.68 2588.63 Q1800.28 2583.98 1801.46 2582.64 Q1803.71 2580.11 1804.59 2578.38 Q1805.49 2576.62 1805.49 2574.93 Q1805.49 2572.17 1803.55 2570.44 Q1801.63 2568.7 1798.52 2568.7 Q1796.33 2568.7 1793.87 2569.47 Q1791.44 2570.23 1788.66 2571.78 L1788.66 2567.06 Q1791.49 2565.92 1793.94 2565.35 Q1796.4 2564.77 1798.43 2564.77 Q1803.8 2564.77 1807 2567.45 Q1810.19 2570.14 1810.19 2574.63 Q1810.19 2576.76 1809.38 2578.68 Q1808.59 2580.58 1806.49 2583.17 Q1805.91 2583.84 1802.81 2587.06 Q1799.71 2590.25 1794.06 2596.02 Z" fill="#000000" fill-rule="nonzero" fill-opacity="1" /><path clip-path="url(#clip530)" d="M1834.84 2565.39 L1856.7 2565.39 L1856.7 2569.33 L1839.52 2569.33 L1839.52 2579.56 L1855.98 2579.56 L1855.98 2583.49 L1839.52 2583.49 L1839.52 2596.02 L1857.11 2596.02 L1857.11 2599.95 L1834.84 2599.95 L1834.84 2565.39 Z" fill="#000000" fill-rule="nonzero" fill-opacity="1" /><path clip-path="url(#clip530)" d="M1881.14 2574.79 L1881.14 2578.82 Q1879.33 2577.89 1877.39 2577.43 Q1875.45 2576.97 1873.36 2576.97 Q1870.19 2576.97 1868.59 2577.94 Q1867.02 2578.91 1867.02 2580.86 Q1867.02 2582.34 1868.15 2583.19 Q1869.29 2584.03 1872.71 2584.79 L1874.17 2585.11 Q1878.71 2586.09 1880.61 2587.87 Q1882.53 2589.63 1882.53 2592.8 Q1882.53 2596.41 1879.66 2598.52 Q1876.81 2600.62 1871.81 2600.62 Q1869.73 2600.62 1867.46 2600.21 Q1865.21 2599.81 1862.71 2599 L1862.71 2594.61 Q1865.08 2595.83 1867.37 2596.46 Q1869.66 2597.06 1871.9 2597.06 Q1874.91 2597.06 1876.53 2596.04 Q1878.15 2595 1878.15 2593.12 Q1878.15 2591.39 1876.97 2590.46 Q1875.82 2589.54 1871.86 2588.68 L1870.38 2588.33 Q1866.42 2587.5 1864.66 2585.79 Q1862.9 2584.05 1862.9 2581.04 Q1862.9 2577.38 1865.49 2575.39 Q1868.08 2573.4 1872.85 2573.4 Q1875.21 2573.4 1877.3 2573.75 Q1879.38 2574.1 1881.14 2574.79 Z" fill="#000000" fill-rule="nonzero" fill-opacity="1" /><path clip-path="url(#clip530)" d="M1893.52 2566.67 L1893.52 2574.03 L1902.3 2574.03 L1902.3 2577.34 L1893.52 2577.34 L1893.52 2591.41 Q1893.52 2594.58 1894.38 2595.48 Q1895.26 2596.39 1897.92 2596.39 L1902.3 2596.39 L1902.3 2599.95 L1897.92 2599.95 Q1892.99 2599.95 1891.12 2598.12 Q1889.24 2596.27 1889.24 2591.41 L1889.24 2577.34 L1886.12 2577.34 L1886.12 2574.03 L1889.24 2574.03 L1889.24 2566.67 L1893.52 2566.67 Z" fill="#000000" fill-rule="nonzero" fill-opacity="1" /><path clip-path="url(#clip530)" d="M1907.9 2574.03 L1912.16 2574.03 L1912.16 2599.95 L1907.9 2599.95 L1907.9 2574.03 M1907.9 2563.93 L1912.16 2563.93 L1912.16 2569.33 L1907.9 2569.33 L1907.9 2563.93 Z" fill="#000000" fill-rule="nonzero" fill-opacity="1" /><path clip-path="url(#clip530)" d="M1941.26 2579 Q1942.85 2576.13 1945.08 2574.77 Q1947.3 2573.4 1950.31 2573.4 Q1954.36 2573.4 1956.56 2576.25 Q1958.76 2579.07 1958.76 2584.3 L1958.76 2599.95 L1954.47 2599.95 L1954.47 2584.44 Q1954.47 2580.72 1953.15 2578.91 Q1951.83 2577.11 1949.13 2577.11 Q1945.82 2577.11 1943.89 2579.3 Q1941.97 2581.5 1941.97 2585.3 L1941.97 2599.95 L1937.69 2599.95 L1937.69 2584.44 Q1937.69 2580.69 1936.37 2578.91 Q1935.05 2577.11 1932.3 2577.11 Q1929.03 2577.11 1927.11 2579.33 Q1925.19 2581.53 1925.19 2585.3 L1925.19 2599.95 L1920.91 2599.95 L1920.91 2574.03 L1925.19 2574.03 L1925.19 2578.05 Q1926.65 2575.67 1928.69 2574.54 Q1930.72 2573.4 1933.52 2573.4 Q1936.35 2573.4 1938.32 2574.84 Q1940.31 2576.27 1941.26 2579 Z" fill="#000000" fill-rule="nonzero" fill-opacity="1" /><path clip-path="url(#clip530)" d="M1979.03 2586.92 Q1973.87 2586.92 1971.88 2588.1 Q1969.89 2589.28 1969.89 2592.13 Q1969.89 2594.4 1971.37 2595.74 Q1972.88 2597.06 1975.45 2597.06 Q1978.99 2597.06 1981.12 2594.56 Q1983.27 2592.04 1983.27 2587.87 L1983.27 2586.92 L1979.03 2586.92 M1987.53 2585.16 L1987.53 2599.95 L1983.27 2599.95 L1983.27 2596.02 Q1981.81 2598.38 1979.64 2599.51 Q1977.46 2600.62 1974.31 2600.62 Q1970.33 2600.62 1967.97 2598.4 Q1965.63 2596.16 1965.63 2592.41 Q1965.63 2588.03 1968.55 2585.81 Q1971.49 2583.59 1977.3 2583.59 L1983.27 2583.59 L1983.27 2583.17 Q1983.27 2580.23 1981.32 2578.63 Q1979.4 2577.01 1975.91 2577.01 Q1973.69 2577.01 1971.58 2577.55 Q1969.47 2578.08 1967.53 2579.14 L1967.53 2575.21 Q1969.87 2574.3 1972.07 2573.86 Q1974.26 2573.4 1976.35 2573.4 Q1981.97 2573.4 1984.75 2576.32 Q1987.53 2579.23 1987.53 2585.16 Z" fill="#000000" fill-rule="nonzero" fill-opacity="1" /><path clip-path="url(#clip530)" d="M2000.51 2566.67 L2000.51 2574.03 L2009.29 2574.03 L2009.29 2577.34 L2000.51 2577.34 L2000.51 2591.41 Q2000.51 2594.58 2001.37 2595.48 Q2002.25 2596.39 2004.91 2596.39 L2009.29 2596.39 L2009.29 2599.95 L2004.91 2599.95 Q1999.98 2599.95 1998.11 2598.12 Q1996.23 2596.27 1996.23 2591.41 L1996.23 2577.34 L1993.11 2577.34 L1993.11 2574.03 L1996.23 2574.03 L1996.23 2566.67 L2000.51 2566.67 Z" fill="#000000" fill-rule="nonzero" fill-opacity="1" /><path clip-path="url(#clip530)" d="M2037.07 2585.92 L2037.07 2588.01 L2017.48 2588.01 Q2017.76 2592.41 2020.12 2594.72 Q2022.51 2597.01 2026.74 2597.01 Q2029.2 2597.01 2031.49 2596.41 Q2033.8 2595.81 2036.07 2594.61 L2036.07 2598.63 Q2033.78 2599.61 2031.37 2600.11 Q2028.96 2600.62 2026.49 2600.62 Q2020.28 2600.62 2016.65 2597.01 Q2013.04 2593.4 2013.04 2587.24 Q2013.04 2580.88 2016.46 2577.15 Q2019.91 2573.4 2025.75 2573.4 Q2030.98 2573.4 2034.01 2576.78 Q2037.07 2580.14 2037.07 2585.92 M2032.81 2584.67 Q2032.76 2581.18 2030.84 2579.1 Q2028.94 2577.01 2025.79 2577.01 Q2022.23 2577.01 2020.07 2579.03 Q2017.95 2581.04 2017.62 2584.7 L2032.81 2584.67 Z" fill="#000000" fill-rule="nonzero" fill-opacity="1" /><polyline clip-path="url(#clip530)" style="stroke:#1e90ff; stroke-linecap:round; stroke-linejoin:round; stroke-width:8; stroke-opacity:1; fill:none" points="2079.17,2582.67 2331.79,2582.67 "/>
<path clip-path="url(#clip530)" d="M2376.11 2599.23 L2376.11 2594.98 Q2377.87 2595.81 2379.68 2596.25 Q2381.48 2596.69 2383.22 2596.69 Q2387.85 2596.69 2390.28 2593.59 Q2392.73 2590.46 2393.08 2584.12 Q2391.74 2586.11 2389.68 2587.17 Q2387.62 2588.24 2385.12 2588.24 Q2379.93 2588.24 2376.9 2585.11 Q2373.89 2581.97 2373.89 2576.53 Q2373.89 2571.2 2377.04 2567.98 Q2380.19 2564.77 2385.42 2564.77 Q2391.41 2564.77 2394.56 2569.37 Q2397.73 2573.96 2397.73 2582.71 Q2397.73 2590.88 2393.84 2595.76 Q2389.98 2600.62 2383.43 2600.62 Q2381.67 2600.62 2379.86 2600.28 Q2378.06 2599.93 2376.11 2599.23 M2385.42 2584.58 Q2388.57 2584.58 2390.39 2582.43 Q2392.25 2580.28 2392.25 2576.53 Q2392.25 2572.8 2390.39 2570.65 Q2388.57 2568.47 2385.42 2568.47 Q2382.27 2568.47 2380.42 2570.65 Q2378.59 2572.8 2378.59 2576.53 Q2378.59 2580.28 2380.42 2582.43 Q2382.27 2584.58 2385.42 2584.58 Z" fill="#000000" fill-rule="nonzero" fill-opacity="1" /><path clip-path="url(#clip530)" d="M2406.18 2565.39 L2424.54 2565.39 L2424.54 2569.33 L2410.46 2569.33 L2410.46 2577.8 Q2411.48 2577.45 2412.5 2577.29 Q2413.52 2577.11 2414.54 2577.11 Q2420.33 2577.11 2423.7 2580.28 Q2427.08 2583.45 2427.08 2588.86 Q2427.08 2594.44 2423.61 2597.55 Q2420.14 2600.62 2413.82 2600.62 Q2411.64 2600.62 2409.38 2600.25 Q2407.13 2599.88 2404.72 2599.14 L2404.72 2594.44 Q2406.81 2595.58 2409.03 2596.13 Q2411.25 2596.69 2413.73 2596.69 Q2417.73 2596.69 2420.07 2594.58 Q2422.41 2592.48 2422.41 2588.86 Q2422.41 2585.25 2420.07 2583.15 Q2417.73 2581.04 2413.73 2581.04 Q2411.85 2581.04 2409.98 2581.46 Q2408.13 2581.87 2406.18 2582.75 L2406.18 2565.39 Z" fill="#000000" fill-rule="nonzero" fill-opacity="1" /><path clip-path="url(#clip530)" d="M2465.7 2584.74 Q2463.68 2584.74 2462.52 2586.46 Q2461.39 2588.17 2461.39 2591.23 Q2461.39 2594.23 2462.52 2595.97 Q2463.68 2597.68 2465.7 2597.68 Q2467.66 2597.68 2468.8 2595.97 Q2469.95 2594.23 2469.95 2591.23 Q2469.95 2588.19 2468.8 2586.48 Q2467.66 2584.74 2465.7 2584.74 M2465.7 2581.8 Q2469.35 2581.8 2471.51 2584.35 Q2473.66 2586.9 2473.66 2591.23 Q2473.66 2595.55 2471.48 2598.1 Q2469.33 2600.62 2465.7 2600.62 Q2461.99 2600.62 2459.84 2598.1 Q2457.69 2595.55 2457.69 2591.23 Q2457.69 2586.87 2459.84 2584.35 Q2462.01 2581.8 2465.7 2581.8 M2441.81 2567.71 Q2439.82 2567.71 2438.66 2569.44 Q2437.52 2571.16 2437.52 2574.17 Q2437.52 2577.22 2438.66 2578.93 Q2439.79 2580.65 2441.81 2580.65 Q2443.82 2580.65 2444.95 2578.93 Q2446.11 2577.22 2446.11 2574.17 Q2446.11 2571.18 2444.95 2569.44 Q2443.8 2567.71 2441.81 2567.71 M2462.71 2564.77 L2466.41 2564.77 L2444.79 2600.62 L2441.09 2600.62 L2462.71 2564.77 M2441.81 2564.77 Q2445.46 2564.77 2447.64 2567.31 Q2449.82 2569.84 2449.82 2574.17 Q2449.82 2578.54 2447.64 2581.06 Q2445.49 2583.59 2441.81 2583.59 Q2438.13 2583.59 2435.97 2581.06 Q2433.84 2578.52 2433.84 2574.17 Q2433.84 2569.86 2436 2567.31 Q2438.15 2564.77 2441.81 2564.77 Z" fill="#000000" fill-rule="nonzero" fill-opacity="1" /><path clip-path="url(#clip530)" d="M2521.88 2568.05 L2521.88 2572.98 Q2519.51 2570.79 2516.83 2569.7 Q2514.17 2568.61 2511.16 2568.61 Q2505.23 2568.61 2502.08 2572.24 Q2498.94 2575.86 2498.94 2582.71 Q2498.94 2589.54 2502.08 2593.17 Q2505.23 2596.78 2511.16 2596.78 Q2514.17 2596.78 2516.83 2595.69 Q2519.51 2594.61 2521.88 2592.41 L2521.88 2597.29 Q2519.42 2598.96 2516.67 2599.79 Q2513.94 2600.62 2510.88 2600.62 Q2503.03 2600.62 2498.52 2595.83 Q2494.01 2591.02 2494.01 2582.71 Q2494.01 2574.37 2498.52 2569.58 Q2503.03 2564.77 2510.88 2564.77 Q2513.98 2564.77 2516.71 2565.6 Q2519.47 2566.41 2521.88 2568.05 Z" fill="#000000" fill-rule="nonzero" fill-opacity="1" /><path clip-path="url(#clip530)" d="M2529.1 2565.39 L2533.77 2565.39 L2533.77 2599.95 L2529.1 2599.95 L2529.1 2565.39 Z" fill="#000000" fill-rule="nonzero" fill-opacity="1" /></svg>
